<?xml version="1.0" encoding="UTF-8" standalone="no"?>
<svg
   xmlns:dc="http://purl.org/dc/elements/1.1/"
   xmlns:cc="http://creativecommons.org/ns#"
   xmlns:rdf="http://www.w3.org/1999/02/22-rdf-syntax-ns#"
   xmlns:svg="http://www.w3.org/2000/svg"
   xmlns="http://www.w3.org/2000/svg"
   xmlns:sodipodi="http://sodipodi.sourceforge.net/DTD/sodipodi-0.dtd"
   xmlns:inkscape="http://www.inkscape.org/namespaces/inkscape"
   version="1.1"
   viewBox="0 0 17367 9832"
   preserveAspectRatio="xMidYMid"
   id="svg2"
   inkscape:version="0.47 r22583"
   width="100%"
   height="100%"
   sodipodi:docname="test.svg"
   style="fill-rule:evenodd">
  <metadata
     id="metadata46">
    <rdf:RDF>
      <cc:Work
         rdf:about="">
        <dc:format>image/svg+xml</dc:format>
        <dc:type
           rdf:resource="http://purl.org/dc/dcmitype/StillImage" />
      </cc:Work>
    </rdf:RDF>
  </metadata>
  <defs
     id="defs44">
    <inkscape:perspective
       sodipodi:type="inkscape:persp3d"
       inkscape:vp_x="0 : 14850 : 1"
       inkscape:vp_y="0 : 1000 : 0"
       inkscape:vp_z="21000 : 14850 : 1"
       inkscape:persp3d-origin="10500 : 9900 : 1"
       id="perspective48" />
  </defs>
  <sodipodi:namedview
     pagecolor="#ffffff"
     bordercolor="#666666"
     borderopacity="1"
     objecttolerance="10"
     gridtolerance="10"
     guidetolerance="10"
     inkscape:pageopacity="0"
     inkscape:pageshadow="2"
     inkscape:window-width="1920"
     inkscape:window-height="1029"
     id="namedview42"
     showgrid="false"
     units="cm"
     inkscape:zoom="0.028284271"
     inkscape:cx="10899.793"
     inkscape:cy="5657.9979"
     inkscape:window-x="0"
     inkscape:window-y="24"
     inkscape:window-maximized="1"
     inkscape:current-layer="svg2" />
  <path
     style="fill:#555f66;stroke:none;visibility:visible"
     d="m 72,8961.9976 0,0 c -55,0 -55,0 -55,0 0,0 -17,0 -17,19 0,638 0,638 0,638 0,17 17,17 17,17 55,0 55,0 55,0 0,0 17,0 17,-17 0,-638 0,-638 0,-638 0,-19 -17,-19 -17,-19 z m 550,0 0,0 c -426,0 -426,0 -426,0 0,0 -19,0 -19,19 0,35 0,35 0,35 0,17 19,17 19,17 177,0 177,0 177,0 0,586 0,586 0,586 0,17 0,17 17,17 53,0 53,0 53,0 0,0 18,0 18,-17 0,-586 0,-586 0,-586 161,0 161,0 161,0 17,0 17,-17 17,-17 0,-35 0,-35 0,-35 0,-19 0,-19 -17,-19 z m 550,320 0,0 c -91,-53 -91,-53 -91,-53 -52,-54 -88,-71 -88,-107 0,-70 36,-89 124,-89 55,0 124,0 160,0 0,0 0,0 0,0 17,0 17,0 17,-17 0,-35 0,-35 0,-35 0,-19 0,-19 -17,-19 -36,0 -105,-17 -160,-17 -124,0 -213,53 -213,177 0,71 55,107 125,160 88,53 88,53 88,53 89,53 107,88 107,124 0,72 -18,108 -124,108 -53,0 -107,0 -160,0 0,0 0,0 0,0 0,0 -17,0 -17,17 0,35 0,35 0,35 0,17 0,17 17,17 36,0 89,19 160,19 177,0 213,-107 213,-196 0,-71 -36,-124 -141,-177 z m 567,-141 0,0 c -36,0 -36,0 -36,0 -17,0 -17,0 -17,17 -125,409 -125,409 -125,409 0,0 0,0 0,0 -18,0 -18,0 -18,-19 -106,-390 -106,-390 -106,-390 0,-17 -19,-17 -19,-17 -52,0 -52,0 -52,0 -17,0 -17,0 -17,17 0,0 0,0 0,0 124,426 124,426 124,426 17,52 34,52 70,52 0,0 0,0 0,0 0,36 0,36 0,36 -17,72 -36,89 -89,89 -17,0 -70,0 -88,0 0,0 0,0 0,0 0,0 -17,0 -17,0 0,35 0,35 0,35 0,18 17,18 17,18 18,0 52,18 88,18 89,0 125,-36 160,-141 142,-533 142,-533 142,-533 0,0 0,0 0,0 0,-17 0,-17 -17,-17 z m 318,230 0,0 c -89,-53 -89,-53 -89,-53 -52,-19 -69,-36 -69,-72 0,-35 34,-53 88,-53 53,0 106,18 142,18 0,0 0,0 0,0 0,0 17,-18 17,-18 0,-35 0,-35 0,-35 0,0 -17,-17 -17,-17 -53,0 -89,-19 -142,-19 -88,0 -160,36 -160,124 0,72 36,108 89,142 88,54 88,54 88,54 53,36 72,53 72,70 0,55 -36,72 -89,72 -36,0 -107,0 -143,-17 0,0 0,0 0,0 -17,0 -17,17 -17,17 0,35 0,35 0,35 0,0 0,17 17,17 36,19 107,19 143,19 89,0 159,-54 159,-143 0,-53 -17,-89 -89,-141 z m 410,213 0,0 c -53,0 -53,0 -53,0 -36,0 -36,0 -36,-53 0,-320 0,-320 0,-320 89,0 89,0 89,0 17,0 17,-18 17,-18 0,-35 0,-35 0,-35 0,-17 0,-17 -17,-17 -89,0 -89,0 -89,0 0,-108 0,-108 0,-108 0,0 -19,-17 -19,-17 0,0 0,0 0,0 -53,17 -53,17 -53,17 -17,0 -17,0 -17,19 0,89 0,89 0,89 -89,0 -89,0 -89,0 0,0 -19,0 -19,17 0,17 0,17 0,17 0,18 19,18 19,18 89,18 89,18 89,18 0,320 0,320 0,320 0,88 35,124 125,124 17,0 36,0 53,-19 17,0 17,0 17,0 0,-35 0,-35 0,-35 0,-17 0,-17 -17,-17 z m 265,-462 0,0 c -124,0 -194,89 -194,232 0,69 0,69 0,69 0,178 89,232 194,232 72,0 108,-19 160,-19 17,0 17,-17 17,-17 0,-35 0,-35 0,-35 0,-17 0,-17 -17,-17 0,0 0,0 0,0 -35,17 -107,17 -160,17 -69,0 -124,-53 -124,-161 0,0 0,0 0,0 301,0 301,0 301,0 19,0 19,-17 19,-35 0,-34 0,-34 0,-34 0,-143 -71,-232 -196,-232 z m 125,232 0,0 c -249,0 -249,0 -249,0 0,0 0,0 0,0 0,-108 55,-161 124,-161 72,0 125,53 125,161 0,0 0,0 0,0 z m 602,-232 0,0 c -35,0 -88,19 -141,36 -17,-17 -53,-36 -88,-36 -53,0 -89,19 -125,53 0,-17 0,-17 0,-17 0,-17 -17,-17 -17,-17 -54,0 -54,0 -54,0 -17,0 -17,0 -17,17 0,461 0,461 0,461 0,17 0,17 17,17 54,0 54,0 54,0 0,0 17,0 17,-17 0,-390 0,-390 0,-390 36,-18 72,-36 106,-36 36,0 71,18 71,106 0,320 0,320 0,320 0,17 0,17 0,17 53,0 53,0 53,0 19,0 19,0 19,-17 0,-320 0,-320 0,-320 0,-34 0,-53 0,-70 36,-18 70,-36 88,-36 53,0 89,36 89,106 0,320 0,320 0,320 0,17 0,17 17,17 36,0 36,0 36,0 18,0 18,0 18,-17 0,-320 0,-320 0,-320 0,-124 -54,-177 -143,-177 z m 462,249 0,0 c -89,-53 -89,-53 -89,-53 -35,-19 -52,-36 -52,-72 0,-35 35,-53 69,-53 55,0 108,18 143,18 0,0 0,0 0,0 17,0 17,-18 17,-18 0,-35 0,-35 0,-35 0,0 0,-17 -17,-17 -35,0 -88,-19 -143,-19 -88,0 -158,36 -158,124 0,72 36,108 89,142 88,54 88,54 88,54 53,36 72,53 72,70 0,55 -19,72 -91,72 -34,0 -88,0 -141,-17 0,0 0,0 0,0 0,0 -17,17 -17,17 0,35 0,35 0,35 0,0 17,17 17,17 53,19 107,19 141,19 108,0 179,-54 179,-143 0,-53 -36,-89 -107,-141 z m 763,-409 0,0 c -36,-17 -106,-17 -160,-17 -125,0 -194,53 -194,177 0,356 0,356 0,356 0,123 69,177 194,177 54,0 124,0 160,-19 17,0 17,0 17,0 0,-52 0,-52 0,-52 0,0 0,-17 -17,-17 -160,0 -160,0 -160,0 -106,0 -125,-19 -125,-89 0,-160 0,-160 0,-160 285,0 285,0 285,0 0,0 17,0 17,-19 0,-34 0,-34 0,-34 0,0 -17,-19 -17,-19 -285,0 -285,0 -285,0 0,-124 0,-124 0,-124 0,-70 19,-89 125,-89 160,0 160,0 160,0 17,0 17,-17 17,-17 0,-54 0,-54 0,-54 0,0 0,0 -17,0 z m 320,160 0,0 c -36,0 -90,19 -143,53 0,-17 0,-17 0,-17 0,-17 0,-17 0,-17 -53,0 -53,0 -53,0 -17,0 -17,0 -17,17 0,461 0,461 0,461 0,17 0,17 17,17 36,0 36,0 36,0 17,0 17,0 17,-17 0,-390 0,-390 0,-390 53,-18 88,-36 124,-36 72,0 107,36 107,125 0,301 0,301 0,301 0,17 0,17 17,17 36,0 36,0 36,0 17,0 17,0 17,-17 0,-301 0,-301 0,-301 0,-125 -36,-196 -158,-196 z m 655,19 0,0 c -195,0 -195,0 -195,0 -159,0 -194,70 -194,158 0,0 0,0 0,0 0,55 0,89 35,107 -18,17 -35,53 -35,72 0,0 0,0 0,0 0,34 17,70 35,70 17,0 17,0 17,0 -35,36 -71,71 -71,124 0,0 0,0 0,0 0,107 71,160 213,160 143,0 195,-53 195,-141 0,-19 0,-19 0,-19 0,-88 -71,-105 -160,-124 -141,-36 -141,-36 -141,-36 -19,-17 -19,-17 -19,-34 0,-19 0,-19 19,-36 17,17 53,17 106,17 143,0 195,-53 195,-160 0,0 0,0 0,0 0,-53 -17,-70 -35,-88 35,-18 35,-18 35,-18 17,0 17,0 17,-18 0,-17 0,-17 0,-17 0,-17 -17,-17 -17,-17 z m -284,443 0,0 c 107,17 107,17 107,17 70,18 106,35 106,71 0,19 0,19 0,19 0,53 -17,70 -124,70 -106,0 -125,-36 -125,-89 0,0 0,0 0,0 0,-53 19,-71 36,-88 z m 213,-285 0,0 c 0,72 -36,107 -124,107 -106,0 -125,-52 -125,-107 0,0 0,0 0,0 0,-53 19,-106 125,-106 88,0 124,53 124,106 0,0 0,0 0,0 z m 232,-158 0,0 c -36,0 -36,0 -36,0 -19,0 -19,0 -19,17 0,461 0,461 0,461 0,17 0,17 19,17 36,0 36,0 36,0 17,0 17,0 17,-17 0,-461 0,-461 0,-461 0,-17 0,-17 -17,-17 z m 0,-196 0,0 c -36,0 -36,0 -36,0 -19,0 -19,0 -19,17 0,71 0,71 0,71 0,19 0,19 19,19 36,0 36,0 36,0 17,0 17,0 17,-19 0,-71 0,-71 0,-71 0,-17 0,-17 -17,-17 z m 354,177 0,0 c -53,0 -89,19 -142,53 0,-17 0,-17 0,-17 0,-17 0,-17 -18,-17 -36,0 -36,0 -36,0 -17,0 -17,0 -17,17 0,461 0,461 0,461 0,17 0,17 17,17 36,0 36,0 36,0 18,0 18,0 18,-17 0,-390 0,-390 0,-390 53,-18 89,-36 125,-36 69,0 105,36 105,125 0,301 0,301 0,301 0,17 0,17 19,17 34,0 34,0 34,0 19,0 19,0 19,-17 0,-301 0,-301 0,-301 0,-125 -53,-196 -160,-196 z m 461,0 0,0 c -124,0 -196,89 -196,232 0,69 0,69 0,69 0,178 89,232 196,232 53,0 106,-19 160,-19 17,0 17,-17 17,-17 0,-35 0,-35 0,-35 0,-17 0,-17 -17,-17 0,0 0,0 0,0 -36,17 -107,17 -160,17 -88,0 -124,-53 -124,-161 0,0 0,0 0,0 301,0 301,0 301,0 0,0 17,-17 17,-35 0,-34 0,-34 0,-34 0,-143 -70,-232 -194,-232 z m 106,232 0,0 c -230,0 -230,0 -230,0 0,0 0,0 0,0 0,-108 36,-161 124,-161 72,0 106,53 106,161 0,0 0,0 0,0 z m 373,-232 0,0 c -142,0 -213,89 -213,232 0,69 0,69 0,69 0,178 107,232 213,232 52,0 107,-19 160,-19 17,0 17,-17 17,-17 0,-35 0,-35 0,-35 0,-17 0,-17 -17,-17 0,0 0,0 0,0 -36,17 -108,17 -160,17 -89,0 -125,-53 -125,-161 0,0 0,0 0,0 302,0 302,0 302,0 0,0 18,-17 18,-35 0,-34 0,-34 0,-34 0,-143 -71,-232 -195,-232 z m 107,232 0,0 c -232,0 -232,0 -232,0 0,0 0,0 0,0 0,-108 36,-161 125,-161 71,0 107,53 107,161 0,0 0,0 0,0 z m 371,-232 0,0 c -34,0 -70,19 -124,53 0,-17 0,-17 0,-17 0,-17 0,-17 -17,-17 -36,0 -36,0 -36,0 -17,0 -17,0 -17,17 0,461 0,461 0,461 0,17 17,17 17,17 36,0 36,0 36,0 17,0 17,0 17,-17 0,-373 0,-373 0,-373 54,-35 90,-53 124,-53 19,0 36,0 36,-18 0,-34 0,-34 0,-34 0,0 -17,-19 -36,-19 z m 179,19 0,0 c -55,0 -55,0 -55,0 0,0 -17,0 -17,17 0,461 0,461 0,461 0,17 17,17 17,17 55,0 55,0 55,0 0,0 17,0 17,-17 0,-461 0,-461 0,-461 0,-17 -17,-17 -17,-17 z m 0,-196 0,0 c -55,0 -55,0 -55,0 0,0 -17,0 -17,17 0,71 0,71 0,71 0,19 17,19 17,19 55,0 55,0 55,0 0,0 17,0 17,-19 0,-71 0,-71 0,-71 0,-17 -17,-17 -17,-17 z m 354,177 0,0 c -53,0 -107,19 -141,53 0,-17 0,-17 0,-17 0,-17 -19,-17 -19,-17 -53,0 -53,0 -53,0 0,0 -18,0 -18,17 0,461 0,461 0,461 0,17 18,17 18,17 53,0 53,0 53,0 0,0 19,0 19,-17 0,-390 0,-390 0,-390 34,-18 70,-36 105,-36 72,0 108,36 108,125 0,301 0,301 0,301 0,17 0,17 17,17 35,0 35,0 35,0 17,0 17,0 17,-17 0,-301 0,-301 0,-301 0,-125 -35,-196 -141,-196 z m 639,19 0,0 c -196,0 -196,0 -196,0 -158,0 -194,70 -194,158 0,0 0,0 0,0 0,55 17,89 36,107 -19,17 -36,53 -36,72 0,0 0,0 0,0 0,34 17,70 36,70 17,0 17,0 17,0 -36,36 -53,71 -53,124 0,0 0,0 0,0 0,107 53,160 194,160 143,0 213,-53 213,-141 0,-19 0,-19 0,-19 0,-88 -89,-105 -177,-124 -142,-36 -142,-36 -142,-36 -18,-17 -18,-17 -18,-34 0,-19 0,-19 18,-36 36,17 53,17 106,17 143,0 196,-53 196,-160 0,0 0,0 0,0 0,-53 -19,-70 -19,-88 19,-18 19,-18 19,-18 17,0 17,0 17,-18 0,-17 0,-17 0,-17 0,-17 0,-17 -17,-17 z m -285,443 0,0 c 108,17 108,17 108,17 88,18 105,35 105,71 0,19 0,19 0,19 0,53 -17,70 -124,70 -89,0 -124,-36 -124,-89 0,0 0,0 0,0 0,-53 18,-71 35,-88 z m 213,-285 0,0 c 0,72 -36,107 -124,107 -106,0 -124,-52 -124,-107 0,0 0,0 0,0 0,-53 18,-106 124,-106 88,0 124,53 124,106 0,0 0,0 0,0 z m 445,-337 0,0 c -36,0 -36,0 -36,0 -19,0 -19,0 -19,19 0,815 0,815 0,815 0,18 0,18 19,18 36,0 36,0 36,0 17,0 17,0 17,-18 0,-815 0,-815 0,-815 0,-19 0,-19 -17,-19 z m 797,0 0,0 c -53,0 -53,0 -53,0 -17,0 -17,0 -17,19 0,407 0,407 0,407 0,124 -36,196 -143,196 -125,0 -159,-72 -159,-196 0,-407 0,-407 0,-407 0,-19 0,-19 -18,-19 -36,0 -36,0 -36,0 -17,0 -17,0 -17,19 0,407 0,407 0,407 0,179 88,267 230,267 143,0 231,-88 231,-267 0,-407 0,-407 0,-407 0,-19 -18,-19 -18,-19 z m 355,160 0,0 c -54,0 -88,19 -143,53 0,-17 0,-17 0,-17 0,-17 -17,-17 -17,-17 -52,0 -52,0 -52,0 0,0 -19,0 -19,17 0,461 0,461 0,461 0,17 19,17 19,17 52,0 52,0 52,0 0,0 17,0 17,-17 0,-390 0,-390 0,-390 36,-18 89,-36 125,-36 71,0 88,36 88,125 0,301 0,301 0,301 0,17 19,17 19,17 53,0 53,0 53,0 0,0 17,0 17,-17 0,-301 0,-301 0,-301 0,-125 -53,-196 -159,-196 z m 338,-177 0,0 c -55,0 -55,0 -55,0 0,0 -17,0 -17,17 0,71 0,71 0,71 0,19 17,19 17,19 55,0 55,0 55,0 17,0 17,0 17,-19 0,-71 0,-71 0,-71 0,-17 0,-17 -17,-17 z m 0,196 0,0 c -55,0 -55,0 -55,0 0,0 -17,0 -17,17 0,461 0,461 0,461 0,17 17,17 17,17 55,0 55,0 55,0 0,0 17,0 17,-17 0,-461 0,-461 0,-461 0,-17 -17,-17 -17,-17 z m 496,0 0,0 c -53,0 -53,0 -53,0 0,0 0,0 -17,17 -89,390 -89,390 -89,390 -19,36 -19,36 -19,36 -17,0 -17,0 -36,-36 -88,-390 -88,-390 -88,-390 -17,-17 -17,-17 -17,-17 -53,0 -53,0 -53,0 -19,0 -19,0 -19,17 0,0 0,0 0,0 124,443 124,443 124,443 17,35 36,54 89,54 36,0 53,-19 73,-54 124,-443 124,-443 124,-443 0,0 0,0 0,0 0,-17 0,-17 -19,-17 z m 267,-19 0,0 c -124,0 -195,89 -195,232 0,69 0,69 0,69 0,178 105,232 195,232 70,0 123,-19 159,-19 19,0 19,-17 19,-17 0,-35 0,-35 0,-35 0,-17 0,-17 0,-17 -19,0 -19,0 -19,0 -36,17 -106,17 -159,17 -71,0 -124,-53 -124,-161 0,0 0,0 0,0 302,0 302,0 302,0 17,0 17,-17 17,-35 0,-34 0,-34 0,-34 0,-143 -53,-232 -195,-232 z m 123,232 0,0 c -247,0 -247,0 -247,0 0,0 0,0 0,0 0,-108 53,-161 124,-161 89,0 123,53 123,161 0,0 0,0 0,0 z m 373,-232 0,0 c -53,0 -89,19 -124,53 0,-17 0,-17 0,-17 0,-17 -17,-17 -17,-17 -53,0 -53,0 -53,0 0,0 -19,0 -19,17 0,461 0,461 0,461 0,17 19,17 19,17 53,0 53,0 53,0 0,0 17,0 17,-17 0,-373 0,-373 0,-373 35,-35 71,-53 124,-53 0,0 19,0 19,-18 0,-34 0,-34 0,-34 0,0 -19,-19 -19,-19 z m 284,249 0,0 c -88,-53 -88,-53 -88,-53 -36,-19 -53,-36 -53,-72 0,-35 34,-53 89,-53 34,0 105,18 124,18 17,0 17,0 17,0 0,0 0,-18 0,-18 0,-35 0,-35 0,-35 0,0 0,-17 0,-17 -53,0 -107,-19 -141,-19 -108,0 -161,36 -161,124 0,72 36,108 89,142 89,54 89,54 89,54 52,36 71,53 71,70 0,55 -36,72 -88,72 -36,0 -108,0 -143,-17 -18,0 -18,0 -18,0 0,0 0,17 0,17 0,35 0,35 0,35 0,0 0,17 18,17 35,19 107,19 143,19 88,0 158,-54 158,-143 0,-53 -17,-89 -106,-141 z m 249,-230 0,0 c -36,0 -36,0 -36,0 -19,0 -19,0 -19,17 0,461 0,461 0,461 0,17 0,17 19,17 36,0 36,0 36,0 17,0 17,0 17,-17 0,-461 0,-461 0,-461 0,-17 0,-17 -17,-17 z m 17,-196 0,0 c -53,0 -53,0 -53,0 -19,0 -19,0 -19,17 0,71 0,71 0,71 0,19 0,19 19,19 53,0 53,0 53,0 0,0 19,0 19,-19 0,-71 0,-71 0,-71 0,-17 -19,-17 -19,-17 z m 373,639 0,0 c -53,0 -53,0 -53,0 -36,0 -54,0 -54,-53 0,-320 0,-320 0,-320 107,0 107,0 107,0 0,0 17,-18 17,-18 0,-35 0,-35 0,-35 0,-17 -17,-17 -17,-17 -107,0 -107,0 -107,0 0,-108 0,-108 0,-108 0,0 0,-17 -17,-17 0,0 0,0 0,0 -36,17 -36,17 -36,17 -17,0 -17,0 -17,19 0,89 0,89 0,89 -89,0 -89,0 -89,0 -18,0 -18,0 -18,17 0,17 0,17 0,17 0,18 0,18 18,18 89,18 89,18 89,18 0,320 0,320 0,320 0,88 36,124 124,124 17,0 34,0 53,-19 17,0 17,0 17,0 0,-35 0,-35 0,-35 0,-17 -17,-17 -17,-17 z m 160,-532 0,0 c 34,0 34,0 34,0 19,0 19,0 19,-19 0,-71 0,-71 0,-71 0,-17 0,-17 -19,-17 -34,0 -34,0 -34,0 0,0 -19,0 -19,17 0,71 0,71 0,71 0,19 19,19 19,19 z m 158,0 0,0 c 36,0 36,0 36,0 19,0 19,0 19,-19 0,-71 0,-71 0,-71 0,-17 0,-17 -19,-17 -36,0 -36,0 -36,0 0,0 -17,0 -17,17 0,71 0,71 0,71 0,19 17,19 17,19 z m -70,70 0,0 c -54,0 -88,19 -124,19 -19,0 -19,0 -19,17 0,35 0,35 0,35 0,18 0,18 0,18 19,0 19,0 19,0 36,0 70,-18 124,-18 70,0 106,36 106,106 0,36 0,36 0,36 -71,0 -71,0 -71,0 -159,0 -212,53 -212,160 0,0 0,0 0,0 0,124 70,160 142,160 53,0 105,-19 141,-54 0,18 0,18 0,18 0,17 0,17 19,17 34,0 34,0 34,0 19,0 19,0 19,-17 0,-320 0,-320 0,-320 0,-106 -53,-177 -178,-177 z m 106,426 0,0 c -53,19 -88,36 -124,36 -53,0 -89,-17 -89,-89 0,0 0,0 0,0 0,-72 36,-89 142,-89 71,0 71,0 71,0 0,142 0,142 0,142 z m 426,36 0,0 c -53,0 -53,0 -53,0 -36,0 -53,0 -53,-53 0,-320 0,-320 0,-320 106,0 106,0 106,0 0,0 19,-18 19,-18 0,-35 0,-35 0,-35 0,-17 -19,-17 -19,-17 -106,0 -106,0 -106,0 0,-108 0,-108 0,-108 0,0 0,-17 -19,-17 0,0 0,0 0,0 -35,17 -35,17 -35,17 -17,0 -17,0 -17,19 0,89 0,89 0,89 -89,0 -89,0 -89,0 -17,0 -17,0 -17,17 0,17 0,17 0,17 0,18 0,18 17,18 89,18 89,18 89,18 0,320 0,320 0,320 0,88 35,124 124,124 0,0 36,0 53,-19 0,0 19,0 19,0 0,-35 0,-35 0,-35 0,-17 -19,-17 -19,-17 z m 478,-639 0,0 c -53,0 -105,17 -141,17 -17,0 -36,0 -36,19 0,638 0,638 0,638 0,17 19,17 19,17 53,0 53,0 53,0 17,0 17,0 17,-17 0,-248 0,-248 0,-248 18,0 54,0 88,0 143,0 249,-53 249,-213 0,0 0,0 0,0 0,-160 -106,-213 -249,-213 z m 160,213 0,0 c 0,107 -35,141 -160,141 -17,0 -70,0 -88,0 0,-266 0,-266 0,-266 18,-17 54,-17 88,-17 108,0 160,36 160,142 0,0 0,0 0,0 z m 356,-36 0,0 c -124,0 -196,89 -196,232 0,69 0,69 0,69 0,144 72,232 196,232 123,0 194,-88 194,-232 0,-69 0,-69 0,-69 0,-143 -71,-232 -194,-232 z m 123,301 0,0 c 0,89 -34,161 -123,161 -90,0 -124,-72 -124,-161 0,-69 0,-69 0,-69 0,-89 34,-161 124,-161 89,0 123,72 123,161 0,69 0,69 0,69 z m 391,161 0,0 c -35,0 -35,0 -35,0 -36,0 -53,0 -53,-53 0,-320 0,-320 0,-320 88,0 88,0 88,0 17,0 17,-18 17,-18 0,-35 0,-35 0,-35 0,-17 0,-17 -17,-17 -88,0 -88,0 -88,0 0,-108 0,-108 0,-108 0,0 0,-17 -19,-17 0,0 0,0 0,0 -53,17 -53,17 -53,17 0,0 -18,0 -18,19 0,89 0,89 0,89 -70,0 -70,0 -70,0 -19,0 -19,0 -19,17 0,17 0,17 0,17 0,18 0,18 19,18 70,18 70,18 70,18 0,320 0,320 0,320 0,88 54,124 124,124 19,0 54,0 71,-19 0,0 18,0 18,0 0,-35 0,-35 0,-35 0,-17 -18,-17 -35,-17 z m 319,-213 0,0 c -89,-53 -89,-53 -89,-53 -35,-19 -52,-36 -52,-72 0,-35 35,-53 69,-53 55,0 108,18 143,18 0,0 0,0 0,0 17,0 17,-18 17,-18 0,-35 0,-35 0,-35 0,0 0,-17 -17,-17 -35,0 -88,-19 -143,-19 -88,0 -158,36 -158,124 0,72 36,108 89,142 88,54 88,54 88,54 53,36 72,53 72,70 0,55 -19,72 -91,72 -34,0 -88,0 -141,-17 0,0 0,0 0,0 0,0 -17,17 -17,17 0,35 0,35 0,35 0,0 17,17 17,17 53,19 107,19 141,19 108,0 179,-54 179,-143 0,-53 -36,-89 -107,-141 z m 533,-426 0,0 c -36,0 -36,0 -36,0 -19,0 -19,17 -19,17 0,179 0,179 0,179 -34,0 -88,-19 -105,-19 -142,0 -196,89 -196,232 0,69 0,69 0,69 0,144 54,232 196,232 53,0 105,-19 160,-19 17,0 17,-17 17,-17 0,-657 0,-657 0,-657 0,0 0,-17 -17,-17 z m -55,622 0,0 c -34,17 -69,17 -105,17 -89,0 -124,-53 -124,-161 0,-69 0,-69 0,-69 0,-89 35,-161 124,-161 17,0 71,0 105,18 0,356 0,356 0,356 z m 356,-445 0,0 c -71,0 -107,19 -143,19 -17,0 -17,0 -17,17 0,35 0,35 0,35 0,18 0,18 17,18 0,0 0,0 0,0 36,0 89,-18 143,-18 70,0 89,36 89,106 0,36 0,36 0,36 -53,0 -53,0 -53,0 -160,0 -232,53 -232,160 0,0 0,0 0,0 0,124 72,160 161,160 35,0 88,-19 124,-54 0,18 0,18 0,18 0,17 17,17 17,17 53,0 53,0 53,0 0,0 18,0 18,-17 0,-320 0,-320 0,-320 0,-106 -52,-177 -177,-177 z m 89,426 0,0 c -36,19 -72,36 -124,36 -36,0 -72,-17 -72,-89 0,0 0,0 0,0 0,-72 19,-89 143,-89 53,0 53,0 53,0 0,142 0,142 0,142 z m 638,-426 0,0 c -35,0 -88,19 -143,36 -17,-17 -52,-36 -88,-36 -53,0 -89,19 -125,53 0,-17 0,-17 0,-17 0,-17 -17,-17 -17,-17 -52,0 -52,0 -52,0 0,0 -19,0 -19,17 0,461 0,461 0,461 0,17 19,17 19,17 52,0 52,0 52,0 0,0 17,0 17,-17 0,-390 0,-390 0,-390 36,-18 72,-36 108,-36 36,0 71,18 71,106 0,320 0,320 0,320 0,17 0,17 17,17 36,0 36,0 36,0 17,0 17,0 17,-17 0,-320 0,-320 0,-320 0,-34 0,-53 0,-70 36,-18 72,-36 107,-36 36,0 70,36 70,106 0,320 0,320 0,320 0,17 19,17 19,17 53,0 53,0 53,0 0,0 18,0 18,-17 0,-320 0,-320 0,-320 0,-124 -71,-177 -160,-177 z"
     id="path22" />
  <path
     style="fill:#555f66;stroke:none;visibility:visible"
     d="m 8905,3514.9976 0,0 c 232,0 232,0 232,0 34,0 52,-19 52,-54 0,-710 0,-710 0,-710 675,0 675,0 675,0 0,710 0,710 0,710 0,35 17,54 35,54 230,0 230,0 230,0 36,0 53,-19 53,-54 0,-1650 0,-1650 0,-1650 0,-19 -17,-36 -53,-36 -230,0 -230,0 -230,0 -18,0 -35,17 -35,36 0,656 0,656 0,656 -675,0 -675,0 -675,0 0,-656 0,-656 0,-656 0,-19 -18,-36 -52,-36 -232,0 -232,0 -232,0 -17,0 -36,17 -36,36 0,1650 0,1650 0,1650 0,35 19,54 36,54 z m 1951,17 0,0 c 125,0 231,-36 339,-107 0,36 0,36 0,36 0,35 17,54 52,54 196,0 196,0 196,0 17,0 53,-19 53,-54 0,-834 0,-834 0,-834 0,-302 -196,-462 -515,-462 -177,0 -302,17 -409,36 -17,17 -34,36 -34,53 0,160 0,160 0,160 0,35 17,35 34,35 19,0 19,0 19,0 70,-18 230,-18 390,-18 125,0 197,36 197,196 0,88 0,88 0,88 -143,0 -143,0 -143,0 -408,0 -568,142 -568,407 0,19 0,19 0,19 0,320 212,391 389,391 z m -88,-410 0,0 c 0,-124 53,-194 267,-194 143,0 143,0 143,0 0,283 0,283 0,283 -72,37 -160,72 -233,72 -124,0 -177,-35 -177,-142 0,-19 0,-19 0,-19 z m 1171,-282 0,0 c 320,194 320,194 320,194 71,54 105,88 105,124 0,72 -17,125 -158,125 -71,0 -284,-17 -390,-35 -19,0 -19,0 -19,0 -17,0 -35,18 -35,35 0,142 0,142 0,142 0,36 18,54 35,54 142,36 338,53 426,53 302,0 462,-160 462,-374 0,-124 -36,-230 -230,-354 -303,-177 -303,-177 -303,-177 -70,-36 -89,-72 -89,-108 0,-70 36,-88 160,-88 124,0 320,18 373,18 17,0 17,0 17,0 19,0 36,-18 36,-35 0,-143 0,-143 0,-143 0,-34 -17,-53 -36,-53 -124,-17 -230,-53 -426,-53 -301,0 -442,124 -442,354 0,143 88,249 194,321 z m 1669,-36 0,0 c -321,-177 -321,-177 -321,-177 -52,-36 -88,-72 -88,-108 0,-70 53,-88 160,-88 141,0 318,18 390,18 0,0 0,0 0,0 36,0 53,-18 53,-35 0,-143 0,-143 0,-143 0,-34 -17,-53 -53,-53 -124,-17 -230,-53 -409,-53 -301,0 -443,124 -443,354 0,143 72,249 195,321 320,194 320,194 320,194 71,54 107,88 107,124 0,72 -36,125 -179,125 -70,0 -283,-17 -390,-35 0,0 0,0 0,0 -36,0 -53,18 -53,35 0,142 0,142 0,142 0,36 17,54 53,54 125,36 320,53 409,53 318,0 461,-160 461,-374 0,-124 -18,-230 -212,-354 z m 992,728 0,0 c 373,0 567,-249 567,-587 0,-194 0,-194 0,-194 0,-337 -194,-586 -567,-586 -373,0 -550,249 -550,586 0,194 0,194 0,194 0,338 177,587 550,587 z m -248,-781 0,0 c 0,-196 88,-320 248,-320 160,0 249,124 249,320 0,194 0,194 0,194 0,196 -89,321 -249,321 -160,0 -248,-125 -248,-321 0,-194 0,-194 0,-194 z m -4275,1829 0,0 c 0,-19 0,-19 0,-19 0,-407 -321,-531 -675,-531 -177,0 -337,0 -461,17 -53,17 -72,35 -72,71 0,1615 0,1615 0,1615 0,34 19,53 36,53 249,0 249,0 249,0 17,0 35,-19 35,-53 0,-605 0,-605 0,-605 53,0 142,0 213,0 354,0 675,-122 675,-548 z m -321,0 0,0 c 0,194 -105,282 -354,282 -36,0 -177,0 -213,0 0,-567 0,-567 0,-567 36,0 160,0 213,0 230,0 354,72 354,266 0,19 0,19 0,19 z m 586,1206 0,0 c 230,0 230,0 230,0 19,0 36,-36 36,-53 0,-1686 0,-1686 0,-1686 0,-36 -17,-53 -36,-53 -230,0 -230,0 -230,0 -17,0 -36,17 -36,53 0,1686 0,1686 0,1686 0,17 19,53 36,53 z m 1261,-89 0,0 c 0,36 0,36 0,36 0,34 17,53 34,53 213,0 213,0 213,0 19,0 36,-19 36,-53 0,-835 0,-835 0,-835 0,-301 -177,-461 -514,-461 -160,0 -302,18 -391,35 -36,17 -36,36 -36,53 0,160 0,160 0,160 0,36 19,36 36,36 17,0 17,0 17,0 72,-19 232,-19 374,-19 141,0 213,36 213,196 0,89 0,89 0,89 -142,0 -142,0 -142,0 -408,0 -587,141 -587,409 0,17 0,17 0,17 0,320 214,390 410,390 106,0 230,-36 337,-106 z m -425,-284 0,0 c 0,-17 0,-17 0,-17 0,-125 52,-196 265,-196 142,0 142,0 142,0 0,284 0,284 0,284 -72,36 -161,70 -249,70 -106,0 -158,-34 -158,-141 z m 1117,18 0,0 c 0,302 105,372 373,372 52,0 105,-17 158,-17 36,0 54,-19 54,-53 0,-143 0,-143 0,-143 0,-17 -18,-36 -54,-36 -124,0 -124,0 -124,0 -89,0 -89,-17 -89,-123 0,-746 0,-746 0,-746 143,0 143,0 143,0 17,0 53,-17 53,-35 0,-142 0,-142 0,-142 0,-36 -36,-53 -53,-53 -143,0 -143,0 -143,0 0,-231 0,-231 0,-231 0,-36 -17,-36 -36,-36 -17,0 -17,0 -17,0 -213,36 -213,36 -213,36 -35,0 -52,18 -52,35 0,196 0,196 0,196 -213,0 -213,0 -213,0 -36,0 -53,17 -53,53 0,106 0,106 0,106 0,19 17,36 53,36 213,35 213,35 213,35 0,746 0,746 0,746 z m 1401,123 0,0 c -124,0 -124,0 -124,0 -89,0 -89,-17 -89,-123 0,-746 0,-746 0,-746 213,0 213,0 213,0 17,0 36,-17 36,-35 0,-142 0,-142 0,-142 0,-36 -19,-53 -36,-53 -213,0 -213,0 -213,0 0,-231 0,-231 0,-231 0,-36 -19,-36 -36,-36 -18,0 -18,0 -18,0 -213,36 -213,36 -213,36 -34,0 -53,18 -53,35 0,196 0,196 0,196 -160,0 -160,0 -160,0 -17,0 -34,17 -34,53 0,106 0,106 0,106 0,19 17,36 34,36 160,35 160,35 160,35 0,746 0,746 0,746 0,302 107,372 373,372 53,0 106,-17 160,-17 36,0 53,-19 53,-53 0,-143 0,-143 0,-143 0,-17 -36,-36 -53,-36 z m 1383,179 0,0 c 0,-763 0,-763 0,-763 0,-302 -70,-533 -407,-533 -160,0 -249,35 -373,124 0,-53 0,-53 0,-53 0,-36 -36,-53 -53,-53 -213,0 -213,0 -213,0 -19,0 -36,17 -36,53 0,1225 0,1225 0,1225 0,17 17,53 36,53 230,0 230,0 230,0 17,0 36,-36 36,-53 0,-940 0,-940 0,-940 105,-55 194,-91 265,-91 178,0 196,55 196,268 0,763 0,763 0,763 0,17 36,53 53,53 213,0 213,0 213,0 36,0 53,-36 53,-53 z m 1313,-497 0,0 c 35,0 52,-36 52,-72 0,-124 0,-124 0,-124 0,-355 -194,-603 -567,-603 -354,0 -550,231 -550,603 0,178 0,178 0,178 0,460 338,585 567,585 213,0 302,-17 445,-36 53,-17 53,-34 53,-70 0,-160 0,-160 0,-160 0,-17 -17,-36 -36,-36 -17,0 -17,0 -17,0 -89,19 -249,36 -426,36 -231,0 -284,-160 -284,-301 0,0 0,0 0,0 763,0 763,0 763,0 z m -763,-230 0,0 c 0,-196 107,-304 248,-304 160,0 249,108 249,304 0,0 0,0 0,0 -497,0 -497,0 -497,0 0,0 0,0 0,0 z m 1703,-569 0,0 c -106,0 -230,35 -338,124 0,-53 0,-53 0,-53 0,-36 -35,-53 -52,-53 -196,0 -196,0 -196,0 -34,0 -53,17 -53,53 0,1225 0,1225 0,1225 0,17 19,53 53,53 213,0 213,0 213,0 18,0 35,-36 35,-53 0,-940 0,-940 0,-940 108,-55 196,-91 338,-91 18,0 35,-17 35,-52 0,-161 0,-161 0,-161 0,-17 -17,-52 -35,-52 z m -8178,1880 0,0 c -249,0 -249,0 -249,0 -17,0 -36,19 -36,36 0,1651 0,1651 0,1651 0,35 19,52 36,52 249,0 249,0 249,0 17,0 35,-17 35,-52 0,-1651 0,-1651 0,-1651 0,-17 -18,-36 -35,-36 z m 1135,392 0,0 c -160,0 -248,34 -390,123 0,-53 0,-53 0,-53 0,-36 -18,-53 -54,-53 -194,0 -194,0 -194,0 -36,0 -55,17 -55,53 0,1225 0,1225 0,1225 0,17 19,52 55,52 213,0 213,0 213,0 17,0 53,-35 53,-52 0,-941 0,-941 0,-941 88,-53 177,-88 265,-88 177,0 196,52 196,265 0,764 0,764 0,764 0,17 17,52 53,52 213,0 213,0 213,0 17,0 52,-35 52,-52 0,-764 0,-764 0,-764 0,-301 -69,-531 -407,-531 z m 1456,639 0,0 c -321,-179 -321,-179 -321,-179 -52,-34 -88,-70 -88,-106 0,-71 54,-88 160,-88 141,0 320,17 390,17 19,0 19,0 19,0 17,0 34,-17 34,-36 0,-141 0,-141 0,-141 0,-36 -17,-53 -53,-53 -106,-19 -230,-53 -407,-53 -301,0 -461,123 -461,354 0,142 88,249 194,319 337,196 337,196 337,196 71,52 107,88 107,124 0,72 -36,124 -177,124 -72,0 -284,-18 -392,-35 -17,0 -17,0 -17,0 -17,0 -35,17 -35,35 0,142 0,142 0,142 0,36 18,53 35,53 142,35 337,54 426,54 320,0 461,-160 461,-373 0,-124 -18,-232 -212,-354 z m 1224,478 0,0 c -124,0 -124,0 -124,0 -89,0 -89,-18 -89,-124 0,-746 0,-746 0,-746 213,0 213,0 213,0 17,0 34,-17 34,-34 0,-143 0,-143 0,-143 0,-36 -17,-53 -34,-53 -213,0 -213,0 -213,0 0,-230 0,-230 0,-230 0,-36 -19,-36 -36,-36 -18,0 -18,0 -18,0 -213,36 -213,36 -213,36 -34,0 -53,17 -53,34 0,196 0,196 0,196 -230,0 -230,0 -230,0 -19,0 -36,17 -36,53 0,107 0,107 0,107 0,17 17,36 36,36 230,34 230,34 230,34 0,746 0,746 0,746 0,302 107,373 373,373 53,0 105,-19 160,-19 34,0 53,-17 53,-52 0,-142 0,-142 0,-142 0,-19 -19,-36 -53,-36 z m 603,-1100 0,0 c -213,0 -213,0 -213,0 -36,0 -53,17 -53,53 0,1225 0,1225 0,1225 0,17 17,52 53,52 213,0 213,0 213,0 36,0 53,-35 53,-52 0,-1225 0,-1225 0,-1225 0,-36 -17,-53 -53,-53 z m 17,-479 0,0 c -230,0 -230,0 -230,0 -36,0 -53,36 -53,53 0,213 0,213 0,213 0,17 17,36 53,36 230,0 230,0 230,0 19,0 36,-19 36,-36 0,-213 0,-213 0,-213 0,-17 -17,-53 -36,-53 z m 1117,1579 0,0 c -123,0 -123,0 -123,0 -90,0 -107,-18 -107,-124 0,-746 0,-746 0,-746 213,0 213,0 213,0 36,0 53,-17 53,-34 0,-143 0,-143 0,-143 0,-36 -17,-53 -53,-53 -213,0 -213,0 -213,0 0,-230 0,-230 0,-230 0,-36 0,-36 -36,-36 0,0 0,0 0,0 -230,36 -230,36 -230,36 -18,0 -35,17 -35,34 0,196 0,196 0,196 -230,0 -230,0 -230,0 -19,0 -36,17 -36,53 0,107 0,107 0,107 0,17 17,36 36,36 230,34 230,34 230,34 0,746 0,746 0,746 0,302 105,373 372,373 53,0 106,-19 159,-19 36,0 54,-17 54,-52 0,-142 0,-142 0,-142 0,-19 -35,-36 -54,-36 z m 1367,-1100 0,0 c -213,0 -213,0 -213,0 -18,0 -35,36 -35,53 0,940 0,940 0,940 -72,36 -196,89 -285,89 -71,0 -105,-17 -141,-34 -36,-36 -55,-108 -55,-232 0,-763 0,-763 0,-763 0,-17 -17,-53 -52,-53 -213,0 -213,0 -213,0 -17,0 -36,36 -36,53 0,763 0,763 0,763 0,196 19,337 107,426 72,71 177,107 302,107 141,0 248,-36 373,-124 0,53 0,53 0,53 0,35 17,52 35,52 213,0 213,0 213,0 34,0 53,-17 53,-52 0,-1225 0,-1225 0,-1225 0,-17 -19,-53 -53,-53 z m 1134,1100 0,0 c -124,0 -124,0 -124,0 -89,0 -106,-18 -106,-124 0,-746 0,-746 0,-746 213,0 213,0 213,0 36,0 53,-17 53,-34 0,-143 0,-143 0,-143 0,-36 -17,-53 -53,-53 -213,0 -213,0 -213,0 0,-230 0,-230 0,-230 0,-36 -18,-36 -35,-36 0,0 0,0 0,0 -230,36 -230,36 -230,36 -19,0 -36,17 -36,34 0,196 0,196 0,196 -232,0 -232,0 -232,0 -17,0 -52,17 -52,53 0,107 0,107 0,107 0,17 35,36 52,36 232,34 232,34 232,34 0,746 0,746 0,746 0,302 106,373 371,373 55,0 107,-19 160,-19 36,0 36,-17 36,-52 0,-142 0,-142 0,-142 0,-19 -17,-36 -36,-36 z"
     id="path24" />
  <path
     style="fill:#b1063a;stroke:none;visibility:visible"
     d="m 7042,8055.9976 -7042,0 0,-7044 7042,0 0,7044 0,0 z"
     id="path28" />
  <path
     style="fill:#faa61a;stroke:none;visibility:visible"
     d="m 8054,6033.9976 -6050,0 0,-6034 6050,0 0,6034 0,0 z"
     id="path32" />
  <path
     style="fill:#e1681e;stroke:none;visibility:visible"
     d="m 2004,6033.9976 5038,0 0,-5022 -5038,0 0,5022 0,0 z"
     id="path36" />
  <path
     style="fill:#ffffff;stroke:none;visibility:visible"
     d="m 4062,1791.9976 0,0 c -230,0 -230,0 -230,0 -35,0 -52,19 -52,36 0,656 0,656 0,656 -675,0 -675,0 -675,0 0,-656 0,-656 0,-656 0,-17 -17,-36 -36,-36 -229,0 -229,0 -229,0 -36,0 -55,19 -55,36 0,1651 0,1651 0,1651 0,36 19,53 55,53 229,0 229,0 229,0 19,0 36,-17 36,-53 0,-711 0,-711 0,-711 675,0 675,0 675,0 0,711 0,711 0,711 0,36 17,53 52,53 230,0 230,0 230,0 19,0 36,-17 36,-53 0,-1651 0,-1651 0,-1651 0,-17 -17,-36 -36,-36 z m 923,-17 0,0 c -160,0 -337,0 -443,17 -54,19 -88,36 -88,72 0,1615 0,1615 0,1615 0,36 34,53 53,53 230,0 230,0 230,0 35,0 54,-17 54,-53 0,-604 0,-604 0,-604 53,0 141,0 194,0 373,0 674,-124 674,-550 0,-19 0,-19 0,-19 0,-407 -301,-531 -674,-531 z m 354,550 0,0 c 0,194 -88,283 -354,283 -36,0 -160,0 -194,0 0,-567 0,-567 0,-567 34,0 158,0 194,0 249,0 354,71 354,265 0,19 0,19 0,19 z m 870,-533 0,0 c -231,0 -231,0 -231,0 -17,0 -34,19 -34,36 0,1651 0,1651 0,1651 0,36 17,53 34,53 231,0 231,0 231,0 36,0 53,-17 53,-53 0,-1651 0,-1651 0,-1651 0,-17 -17,-36 -53,-36 z"
     id="path40" />
</svg>
