<?xml version="1.0" encoding="UTF-8" standalone="no"?>
<!-- Created with Inkscape (http://www.inkscape.org/) -->

<svg
   xmlns:dc="http://purl.org/dc/elements/1.1/"
   xmlns:cc="http://creativecommons.org/ns#"
   xmlns:rdf="http://www.w3.org/1999/02/22-rdf-syntax-ns#"
   xmlns:svg="http://www.w3.org/2000/svg"
   xmlns="http://www.w3.org/2000/svg"
   xmlns:sodipodi="http://sodipodi.sourceforge.net/DTD/sodipodi-0.dtd"
   xmlns:inkscape="http://www.inkscape.org/namespaces/inkscape"
   width="305.69449"
   height="112.77178"
   id="svg2"
   version="1.1"
   inkscape:version="0.48.3.1 r9886"
   sodipodi:docname="university_logos.svg">
  <defs
     id="defs4">
    <inkscape:perspective
       id="perspective48"
       inkscape:persp3d-origin="10500 : 9900 : 1"
       inkscape:vp_z="21000 : 14850 : 1"
       inkscape:vp_y="0 : 1000 : 0"
       inkscape:vp_x="0 : 14850 : 1"
       sodipodi:type="inkscape:persp3d" />
  </defs>
  <sodipodi:namedview
     id="base"
     pagecolor="#ffffff"
     bordercolor="#666666"
     borderopacity="1.0"
     inkscape:pageopacity="0.0"
     inkscape:pageshadow="2"
     inkscape:zoom="1"
     inkscape:cx="21.310033"
     inkscape:cy="-23.260133"
     inkscape:document-units="px"
     inkscape:current-layer="layer1"
     showgrid="false"
     inkscape:window-width="1920"
     inkscape:window-height="1056"
     inkscape:window-x="0"
     inkscape:window-y="24"
     inkscape:window-maximized="1"
     fit-margin-top="0"
     fit-margin-left="0"
     fit-margin-right="0"
     fit-margin-bottom="0" />
  <metadata
     id="metadata7">
    <rdf:RDF>
      <cc:Work
         rdf:about="">
        <dc:format>image/svg+xml</dc:format>
        <dc:type
           rdf:resource="http://purl.org/dc/dcmitype/StillImage" />
        <dc:title></dc:title>
      </cc:Work>
    </rdf:RDF>
  </metadata>
  <g
     inkscape:label="Ebene 1"
     inkscape:groupmode="layer"
     id="layer1"
     transform="translate(-220.00535,-345.39267)">
    <g
       id="g3299"
       transform="matrix(0.84936559,0,0,0.84936559,56.164431,60.521678)">
      <g
         transform="matrix(0.00844466,0,0,0.00844466,192.89799,363.4905)"
         id="g3157"
         style="fill-rule:evenodd">
        <path
           inkscape:connector-curvature="0"
           style="fill:#555f66;stroke:none;visibility:visible"
           d="m 72,8961.9976 0,0 c -55,0 -55,0 -55,0 0,0 -17,0 -17,19 0,638 0,638 0,638 0,17 17,17 17,17 55,0 55,0 55,0 0,0 17,0 17,-17 0,-638 0,-638 0,-638 0,-19 -17,-19 -17,-19 z m 550,0 0,0 c -426,0 -426,0 -426,0 0,0 -19,0 -19,19 0,35 0,35 0,35 0,17 19,17 19,17 177,0 177,0 177,0 0,586 0,586 0,586 0,17 0,17 17,17 53,0 53,0 53,0 0,0 18,0 18,-17 0,-586 0,-586 0,-586 161,0 161,0 161,0 17,0 17,-17 17,-17 0,-35 0,-35 0,-35 0,-19 0,-19 -17,-19 z m 550,320 0,0 c -91,-53 -91,-53 -91,-53 -52,-54 -88,-71 -88,-107 0,-70 36,-89 124,-89 55,0 124,0 160,0 0,0 0,0 0,0 17,0 17,0 17,-17 0,-35 0,-35 0,-35 0,-19 0,-19 -17,-19 -36,0 -105,-17 -160,-17 -124,0 -213,53 -213,177 0,71 55,107 125,160 88,53 88,53 88,53 89,53 107,88 107,124 0,72 -18,108 -124,108 -53,0 -107,0 -160,0 0,0 0,0 0,0 0,0 -17,0 -17,17 0,35 0,35 0,35 0,17 0,17 17,17 36,0 89,19 160,19 177,0 213,-107 213,-196 0,-71 -36,-124 -141,-177 z m 567,-141 0,0 c -36,0 -36,0 -36,0 -17,0 -17,0 -17,17 -125,409 -125,409 -125,409 0,0 0,0 0,0 -18,0 -18,0 -18,-19 -106,-390 -106,-390 -106,-390 0,-17 -19,-17 -19,-17 -52,0 -52,0 -52,0 -17,0 -17,0 -17,17 0,0 0,0 0,0 124,426 124,426 124,426 17,52 34,52 70,52 0,0 0,0 0,0 0,36 0,36 0,36 -17,72 -36,89 -89,89 -17,0 -70,0 -88,0 0,0 0,0 0,0 0,0 -17,0 -17,0 0,35 0,35 0,35 0,18 17,18 17,18 18,0 52,18 88,18 89,0 125,-36 160,-141 142,-533 142,-533 142,-533 0,0 0,0 0,0 0,-17 0,-17 -17,-17 z m 318,230 0,0 c -89,-53 -89,-53 -89,-53 -52,-19 -69,-36 -69,-72 0,-35 34,-53 88,-53 53,0 106,18 142,18 0,0 0,0 0,0 0,0 17,-18 17,-18 0,-35 0,-35 0,-35 0,0 -17,-17 -17,-17 -53,0 -89,-19 -142,-19 -88,0 -160,36 -160,124 0,72 36,108 89,142 88,54 88,54 88,54 53,36 72,53 72,70 0,55 -36,72 -89,72 -36,0 -107,0 -143,-17 0,0 0,0 0,0 -17,0 -17,17 -17,17 0,35 0,35 0,35 0,0 0,17 17,17 36,19 107,19 143,19 89,0 159,-54 159,-143 0,-53 -17,-89 -89,-141 z m 410,213 0,0 c -53,0 -53,0 -53,0 -36,0 -36,0 -36,-53 0,-320 0,-320 0,-320 89,0 89,0 89,0 17,0 17,-18 17,-18 0,-35 0,-35 0,-35 0,-17 0,-17 -17,-17 -89,0 -89,0 -89,0 0,-108 0,-108 0,-108 0,0 -19,-17 -19,-17 0,0 0,0 0,0 -53,17 -53,17 -53,17 -17,0 -17,0 -17,19 0,89 0,89 0,89 -89,0 -89,0 -89,0 0,0 -19,0 -19,17 0,17 0,17 0,17 0,18 19,18 19,18 89,18 89,18 89,18 0,320 0,320 0,320 0,88 35,124 125,124 17,0 36,0 53,-19 17,0 17,0 17,0 0,-35 0,-35 0,-35 0,-17 0,-17 -17,-17 z m 265,-462 0,0 c -124,0 -194,89 -194,232 0,69 0,69 0,69 0,178 89,232 194,232 72,0 108,-19 160,-19 17,0 17,-17 17,-17 0,-35 0,-35 0,-35 0,-17 0,-17 -17,-17 0,0 0,0 0,0 -35,17 -107,17 -160,17 -69,0 -124,-53 -124,-161 0,0 0,0 0,0 301,0 301,0 301,0 19,0 19,-17 19,-35 0,-34 0,-34 0,-34 0,-143 -71,-232 -196,-232 z m 125,232 0,0 c -249,0 -249,0 -249,0 0,0 0,0 0,0 0,-108 55,-161 124,-161 72,0 125,53 125,161 0,0 0,0 0,0 z m 602,-232 0,0 c -35,0 -88,19 -141,36 -17,-17 -53,-36 -88,-36 -53,0 -89,19 -125,53 0,-17 0,-17 0,-17 0,-17 -17,-17 -17,-17 -54,0 -54,0 -54,0 -17,0 -17,0 -17,17 0,461 0,461 0,461 0,17 0,17 17,17 54,0 54,0 54,0 0,0 17,0 17,-17 0,-390 0,-390 0,-390 36,-18 72,-36 106,-36 36,0 71,18 71,106 0,320 0,320 0,320 0,17 0,17 0,17 53,0 53,0 53,0 19,0 19,0 19,-17 0,-320 0,-320 0,-320 0,-34 0,-53 0,-70 36,-18 70,-36 88,-36 53,0 89,36 89,106 0,320 0,320 0,320 0,17 0,17 17,17 36,0 36,0 36,0 18,0 18,0 18,-17 0,-320 0,-320 0,-320 0,-124 -54,-177 -143,-177 z m 462,249 0,0 c -89,-53 -89,-53 -89,-53 -35,-19 -52,-36 -52,-72 0,-35 35,-53 69,-53 55,0 108,18 143,18 0,0 0,0 0,0 17,0 17,-18 17,-18 0,-35 0,-35 0,-35 0,0 0,-17 -17,-17 -35,0 -88,-19 -143,-19 -88,0 -158,36 -158,124 0,72 36,108 89,142 88,54 88,54 88,54 53,36 72,53 72,70 0,55 -19,72 -91,72 -34,0 -88,0 -141,-17 0,0 0,0 0,0 0,0 -17,17 -17,17 0,35 0,35 0,35 0,0 17,17 17,17 53,19 107,19 141,19 108,0 179,-54 179,-143 0,-53 -36,-89 -107,-141 z m 763,-409 0,0 c -36,-17 -106,-17 -160,-17 -125,0 -194,53 -194,177 0,356 0,356 0,356 0,123 69,177 194,177 54,0 124,0 160,-19 17,0 17,0 17,0 0,-52 0,-52 0,-52 0,0 0,-17 -17,-17 -160,0 -160,0 -160,0 -106,0 -125,-19 -125,-89 0,-160 0,-160 0,-160 285,0 285,0 285,0 0,0 17,0 17,-19 0,-34 0,-34 0,-34 0,0 -17,-19 -17,-19 -285,0 -285,0 -285,0 0,-124 0,-124 0,-124 0,-70 19,-89 125,-89 160,0 160,0 160,0 17,0 17,-17 17,-17 0,-54 0,-54 0,-54 0,0 0,0 -17,0 z m 320,160 0,0 c -36,0 -90,19 -143,53 0,-17 0,-17 0,-17 0,-17 0,-17 0,-17 -53,0 -53,0 -53,0 -17,0 -17,0 -17,17 0,461 0,461 0,461 0,17 0,17 17,17 36,0 36,0 36,0 17,0 17,0 17,-17 0,-390 0,-390 0,-390 53,-18 88,-36 124,-36 72,0 107,36 107,125 0,301 0,301 0,301 0,17 0,17 17,17 36,0 36,0 36,0 17,0 17,0 17,-17 0,-301 0,-301 0,-301 0,-125 -36,-196 -158,-196 z m 655,19 0,0 c -195,0 -195,0 -195,0 -159,0 -194,70 -194,158 0,0 0,0 0,0 0,55 0,89 35,107 -18,17 -35,53 -35,72 0,0 0,0 0,0 0,34 17,70 35,70 17,0 17,0 17,0 -35,36 -71,71 -71,124 0,0 0,0 0,0 0,107 71,160 213,160 143,0 195,-53 195,-141 0,-19 0,-19 0,-19 0,-88 -71,-105 -160,-124 -141,-36 -141,-36 -141,-36 -19,-17 -19,-17 -19,-34 0,-19 0,-19 19,-36 17,17 53,17 106,17 143,0 195,-53 195,-160 0,0 0,0 0,0 0,-53 -17,-70 -35,-88 35,-18 35,-18 35,-18 17,0 17,0 17,-18 0,-17 0,-17 0,-17 0,-17 -17,-17 -17,-17 z m -284,443 0,0 c 107,17 107,17 107,17 70,18 106,35 106,71 0,19 0,19 0,19 0,53 -17,70 -124,70 -106,0 -125,-36 -125,-89 0,0 0,0 0,0 0,-53 19,-71 36,-88 z m 213,-285 0,0 c 0,72 -36,107 -124,107 -106,0 -125,-52 -125,-107 0,0 0,0 0,0 0,-53 19,-106 125,-106 88,0 124,53 124,106 0,0 0,0 0,0 z m 232,-158 0,0 c -36,0 -36,0 -36,0 -19,0 -19,0 -19,17 0,461 0,461 0,461 0,17 0,17 19,17 36,0 36,0 36,0 17,0 17,0 17,-17 0,-461 0,-461 0,-461 0,-17 0,-17 -17,-17 z m 0,-196 0,0 c -36,0 -36,0 -36,0 -19,0 -19,0 -19,17 0,71 0,71 0,71 0,19 0,19 19,19 36,0 36,0 36,0 17,0 17,0 17,-19 0,-71 0,-71 0,-71 0,-17 0,-17 -17,-17 z m 354,177 0,0 c -53,0 -89,19 -142,53 0,-17 0,-17 0,-17 0,-17 0,-17 -18,-17 -36,0 -36,0 -36,0 -17,0 -17,0 -17,17 0,461 0,461 0,461 0,17 0,17 17,17 36,0 36,0 36,0 18,0 18,0 18,-17 0,-390 0,-390 0,-390 53,-18 89,-36 125,-36 69,0 105,36 105,125 0,301 0,301 0,301 0,17 0,17 19,17 34,0 34,0 34,0 19,0 19,0 19,-17 0,-301 0,-301 0,-301 0,-125 -53,-196 -160,-196 z m 461,0 0,0 c -124,0 -196,89 -196,232 0,69 0,69 0,69 0,178 89,232 196,232 53,0 106,-19 160,-19 17,0 17,-17 17,-17 0,-35 0,-35 0,-35 0,-17 0,-17 -17,-17 0,0 0,0 0,0 -36,17 -107,17 -160,17 -88,0 -124,-53 -124,-161 0,0 0,0 0,0 301,0 301,0 301,0 0,0 17,-17 17,-35 0,-34 0,-34 0,-34 0,-143 -70,-232 -194,-232 z m 106,232 0,0 c -230,0 -230,0 -230,0 0,0 0,0 0,0 0,-108 36,-161 124,-161 72,0 106,53 106,161 0,0 0,0 0,0 z m 373,-232 0,0 c -142,0 -213,89 -213,232 0,69 0,69 0,69 0,178 107,232 213,232 52,0 107,-19 160,-19 17,0 17,-17 17,-17 0,-35 0,-35 0,-35 0,-17 0,-17 -17,-17 0,0 0,0 0,0 -36,17 -108,17 -160,17 -89,0 -125,-53 -125,-161 0,0 0,0 0,0 302,0 302,0 302,0 0,0 18,-17 18,-35 0,-34 0,-34 0,-34 0,-143 -71,-232 -195,-232 z m 107,232 0,0 c -232,0 -232,0 -232,0 0,0 0,0 0,0 0,-108 36,-161 125,-161 71,0 107,53 107,161 0,0 0,0 0,0 z m 371,-232 0,0 c -34,0 -70,19 -124,53 0,-17 0,-17 0,-17 0,-17 0,-17 -17,-17 -36,0 -36,0 -36,0 -17,0 -17,0 -17,17 0,461 0,461 0,461 0,17 17,17 17,17 36,0 36,0 36,0 17,0 17,0 17,-17 0,-373 0,-373 0,-373 54,-35 90,-53 124,-53 19,0 36,0 36,-18 0,-34 0,-34 0,-34 0,0 -17,-19 -36,-19 z m 179,19 0,0 c -55,0 -55,0 -55,0 0,0 -17,0 -17,17 0,461 0,461 0,461 0,17 17,17 17,17 55,0 55,0 55,0 0,0 17,0 17,-17 0,-461 0,-461 0,-461 0,-17 -17,-17 -17,-17 z m 0,-196 0,0 c -55,0 -55,0 -55,0 0,0 -17,0 -17,17 0,71 0,71 0,71 0,19 17,19 17,19 55,0 55,0 55,0 0,0 17,0 17,-19 0,-71 0,-71 0,-71 0,-17 -17,-17 -17,-17 z m 354,177 0,0 c -53,0 -107,19 -141,53 0,-17 0,-17 0,-17 0,-17 -19,-17 -19,-17 -53,0 -53,0 -53,0 0,0 -18,0 -18,17 0,461 0,461 0,461 0,17 18,17 18,17 53,0 53,0 53,0 0,0 19,0 19,-17 0,-390 0,-390 0,-390 34,-18 70,-36 105,-36 72,0 108,36 108,125 0,301 0,301 0,301 0,17 0,17 17,17 35,0 35,0 35,0 17,0 17,0 17,-17 0,-301 0,-301 0,-301 0,-125 -35,-196 -141,-196 z m 639,19 0,0 c -196,0 -196,0 -196,0 -158,0 -194,70 -194,158 0,0 0,0 0,0 0,55 17,89 36,107 -19,17 -36,53 -36,72 0,0 0,0 0,0 0,34 17,70 36,70 17,0 17,0 17,0 -36,36 -53,71 -53,124 0,0 0,0 0,0 0,107 53,160 194,160 143,0 213,-53 213,-141 0,-19 0,-19 0,-19 0,-88 -89,-105 -177,-124 -142,-36 -142,-36 -142,-36 -18,-17 -18,-17 -18,-34 0,-19 0,-19 18,-36 36,17 53,17 106,17 143,0 196,-53 196,-160 0,0 0,0 0,0 0,-53 -19,-70 -19,-88 19,-18 19,-18 19,-18 17,0 17,0 17,-18 0,-17 0,-17 0,-17 0,-17 0,-17 -17,-17 z m -285,443 0,0 c 108,17 108,17 108,17 88,18 105,35 105,71 0,19 0,19 0,19 0,53 -17,70 -124,70 -89,0 -124,-36 -124,-89 0,0 0,0 0,0 0,-53 18,-71 35,-88 z m 213,-285 0,0 c 0,72 -36,107 -124,107 -106,0 -124,-52 -124,-107 0,0 0,0 0,0 0,-53 18,-106 124,-106 88,0 124,53 124,106 0,0 0,0 0,0 z m 445,-337 0,0 c -36,0 -36,0 -36,0 -19,0 -19,0 -19,19 0,815 0,815 0,815 0,18 0,18 19,18 36,0 36,0 36,0 17,0 17,0 17,-18 0,-815 0,-815 0,-815 0,-19 0,-19 -17,-19 z m 797,0 0,0 c -53,0 -53,0 -53,0 -17,0 -17,0 -17,19 0,407 0,407 0,407 0,124 -36,196 -143,196 -125,0 -159,-72 -159,-196 0,-407 0,-407 0,-407 0,-19 0,-19 -18,-19 -36,0 -36,0 -36,0 -17,0 -17,0 -17,19 0,407 0,407 0,407 0,179 88,267 230,267 143,0 231,-88 231,-267 0,-407 0,-407 0,-407 0,-19 -18,-19 -18,-19 z m 355,160 0,0 c -54,0 -88,19 -143,53 0,-17 0,-17 0,-17 0,-17 -17,-17 -17,-17 -52,0 -52,0 -52,0 0,0 -19,0 -19,17 0,461 0,461 0,461 0,17 19,17 19,17 52,0 52,0 52,0 0,0 17,0 17,-17 0,-390 0,-390 0,-390 36,-18 89,-36 125,-36 71,0 88,36 88,125 0,301 0,301 0,301 0,17 19,17 19,17 53,0 53,0 53,0 0,0 17,0 17,-17 0,-301 0,-301 0,-301 0,-125 -53,-196 -159,-196 z m 338,-177 0,0 c -55,0 -55,0 -55,0 0,0 -17,0 -17,17 0,71 0,71 0,71 0,19 17,19 17,19 55,0 55,0 55,0 17,0 17,0 17,-19 0,-71 0,-71 0,-71 0,-17 0,-17 -17,-17 z m 0,196 0,0 c -55,0 -55,0 -55,0 0,0 -17,0 -17,17 0,461 0,461 0,461 0,17 17,17 17,17 55,0 55,0 55,0 0,0 17,0 17,-17 0,-461 0,-461 0,-461 0,-17 -17,-17 -17,-17 z m 496,0 0,0 c -53,0 -53,0 -53,0 0,0 0,0 -17,17 -89,390 -89,390 -89,390 -19,36 -19,36 -19,36 -17,0 -17,0 -36,-36 -88,-390 -88,-390 -88,-390 -17,-17 -17,-17 -17,-17 -53,0 -53,0 -53,0 -19,0 -19,0 -19,17 0,0 0,0 0,0 124,443 124,443 124,443 17,35 36,54 89,54 36,0 53,-19 73,-54 124,-443 124,-443 124,-443 0,0 0,0 0,0 0,-17 0,-17 -19,-17 z m 267,-19 0,0 c -124,0 -195,89 -195,232 0,69 0,69 0,69 0,178 105,232 195,232 70,0 123,-19 159,-19 19,0 19,-17 19,-17 0,-35 0,-35 0,-35 0,-17 0,-17 0,-17 -19,0 -19,0 -19,0 -36,17 -106,17 -159,17 -71,0 -124,-53 -124,-161 0,0 0,0 0,0 302,0 302,0 302,0 17,0 17,-17 17,-35 0,-34 0,-34 0,-34 0,-143 -53,-232 -195,-232 z m 123,232 0,0 c -247,0 -247,0 -247,0 0,0 0,0 0,0 0,-108 53,-161 124,-161 89,0 123,53 123,161 0,0 0,0 0,0 z m 373,-232 0,0 c -53,0 -89,19 -124,53 0,-17 0,-17 0,-17 0,-17 -17,-17 -17,-17 -53,0 -53,0 -53,0 0,0 -19,0 -19,17 0,461 0,461 0,461 0,17 19,17 19,17 53,0 53,0 53,0 0,0 17,0 17,-17 0,-373 0,-373 0,-373 35,-35 71,-53 124,-53 0,0 19,0 19,-18 0,-34 0,-34 0,-34 0,0 -19,-19 -19,-19 z m 284,249 0,0 c -88,-53 -88,-53 -88,-53 -36,-19 -53,-36 -53,-72 0,-35 34,-53 89,-53 34,0 105,18 124,18 17,0 17,0 17,0 0,0 0,-18 0,-18 0,-35 0,-35 0,-35 0,0 0,-17 0,-17 -53,0 -107,-19 -141,-19 -108,0 -161,36 -161,124 0,72 36,108 89,142 89,54 89,54 89,54 52,36 71,53 71,70 0,55 -36,72 -88,72 -36,0 -108,0 -143,-17 -18,0 -18,0 -18,0 0,0 0,17 0,17 0,35 0,35 0,35 0,0 0,17 18,17 35,19 107,19 143,19 88,0 158,-54 158,-143 0,-53 -17,-89 -106,-141 z m 249,-230 0,0 c -36,0 -36,0 -36,0 -19,0 -19,0 -19,17 0,461 0,461 0,461 0,17 0,17 19,17 36,0 36,0 36,0 17,0 17,0 17,-17 0,-461 0,-461 0,-461 0,-17 0,-17 -17,-17 z m 17,-196 0,0 c -53,0 -53,0 -53,0 -19,0 -19,0 -19,17 0,71 0,71 0,71 0,19 0,19 19,19 53,0 53,0 53,0 0,0 19,0 19,-19 0,-71 0,-71 0,-71 0,-17 -19,-17 -19,-17 z m 373,639 0,0 c -53,0 -53,0 -53,0 -36,0 -54,0 -54,-53 0,-320 0,-320 0,-320 107,0 107,0 107,0 0,0 17,-18 17,-18 0,-35 0,-35 0,-35 0,-17 -17,-17 -17,-17 -107,0 -107,0 -107,0 0,-108 0,-108 0,-108 0,0 0,-17 -17,-17 0,0 0,0 0,0 -36,17 -36,17 -36,17 -17,0 -17,0 -17,19 0,89 0,89 0,89 -89,0 -89,0 -89,0 -18,0 -18,0 -18,17 0,17 0,17 0,17 0,18 0,18 18,18 89,18 89,18 89,18 0,320 0,320 0,320 0,88 36,124 124,124 17,0 34,0 53,-19 17,0 17,0 17,0 0,-35 0,-35 0,-35 0,-17 -17,-17 -17,-17 z m 160,-532 0,0 c 34,0 34,0 34,0 19,0 19,0 19,-19 0,-71 0,-71 0,-71 0,-17 0,-17 -19,-17 -34,0 -34,0 -34,0 0,0 -19,0 -19,17 0,71 0,71 0,71 0,19 19,19 19,19 z m 158,0 0,0 c 36,0 36,0 36,0 19,0 19,0 19,-19 0,-71 0,-71 0,-71 0,-17 0,-17 -19,-17 -36,0 -36,0 -36,0 0,0 -17,0 -17,17 0,71 0,71 0,71 0,19 17,19 17,19 z m -70,70 0,0 c -54,0 -88,19 -124,19 -19,0 -19,0 -19,17 0,35 0,35 0,35 0,18 0,18 0,18 19,0 19,0 19,0 36,0 70,-18 124,-18 70,0 106,36 106,106 0,36 0,36 0,36 -71,0 -71,0 -71,0 -159,0 -212,53 -212,160 0,0 0,0 0,0 0,124 70,160 142,160 53,0 105,-19 141,-54 0,18 0,18 0,18 0,17 0,17 19,17 34,0 34,0 34,0 19,0 19,0 19,-17 0,-320 0,-320 0,-320 0,-106 -53,-177 -178,-177 z m 106,426 0,0 c -53,19 -88,36 -124,36 -53,0 -89,-17 -89,-89 0,0 0,0 0,0 0,-72 36,-89 142,-89 71,0 71,0 71,0 0,142 0,142 0,142 z m 426,36 0,0 c -53,0 -53,0 -53,0 -36,0 -53,0 -53,-53 0,-320 0,-320 0,-320 106,0 106,0 106,0 0,0 19,-18 19,-18 0,-35 0,-35 0,-35 0,-17 -19,-17 -19,-17 -106,0 -106,0 -106,0 0,-108 0,-108 0,-108 0,0 0,-17 -19,-17 0,0 0,0 0,0 -35,17 -35,17 -35,17 -17,0 -17,0 -17,19 0,89 0,89 0,89 -89,0 -89,0 -89,0 -17,0 -17,0 -17,17 0,17 0,17 0,17 0,18 0,18 17,18 89,18 89,18 89,18 0,320 0,320 0,320 0,88 35,124 124,124 0,0 36,0 53,-19 0,0 19,0 19,0 0,-35 0,-35 0,-35 0,-17 -19,-17 -19,-17 z m 478,-639 0,0 c -53,0 -105,17 -141,17 -17,0 -36,0 -36,19 0,638 0,638 0,638 0,17 19,17 19,17 53,0 53,0 53,0 17,0 17,0 17,-17 0,-248 0,-248 0,-248 18,0 54,0 88,0 143,0 249,-53 249,-213 0,0 0,0 0,0 0,-160 -106,-213 -249,-213 z m 160,213 0,0 c 0,107 -35,141 -160,141 -17,0 -70,0 -88,0 0,-266 0,-266 0,-266 18,-17 54,-17 88,-17 108,0 160,36 160,142 0,0 0,0 0,0 z m 356,-36 0,0 c -124,0 -196,89 -196,232 0,69 0,69 0,69 0,144 72,232 196,232 123,0 194,-88 194,-232 0,-69 0,-69 0,-69 0,-143 -71,-232 -194,-232 z m 123,301 0,0 c 0,89 -34,161 -123,161 -90,0 -124,-72 -124,-161 0,-69 0,-69 0,-69 0,-89 34,-161 124,-161 89,0 123,72 123,161 0,69 0,69 0,69 z m 391,161 0,0 c -35,0 -35,0 -35,0 -36,0 -53,0 -53,-53 0,-320 0,-320 0,-320 88,0 88,0 88,0 17,0 17,-18 17,-18 0,-35 0,-35 0,-35 0,-17 0,-17 -17,-17 -88,0 -88,0 -88,0 0,-108 0,-108 0,-108 0,0 0,-17 -19,-17 0,0 0,0 0,0 -53,17 -53,17 -53,17 0,0 -18,0 -18,19 0,89 0,89 0,89 -70,0 -70,0 -70,0 -19,0 -19,0 -19,17 0,17 0,17 0,17 0,18 0,18 19,18 70,18 70,18 70,18 0,320 0,320 0,320 0,88 54,124 124,124 19,0 54,0 71,-19 0,0 18,0 18,0 0,-35 0,-35 0,-35 0,-17 -18,-17 -35,-17 z m 319,-213 0,0 c -89,-53 -89,-53 -89,-53 -35,-19 -52,-36 -52,-72 0,-35 35,-53 69,-53 55,0 108,18 143,18 0,0 0,0 0,0 17,0 17,-18 17,-18 0,-35 0,-35 0,-35 0,0 0,-17 -17,-17 -35,0 -88,-19 -143,-19 -88,0 -158,36 -158,124 0,72 36,108 89,142 88,54 88,54 88,54 53,36 72,53 72,70 0,55 -19,72 -91,72 -34,0 -88,0 -141,-17 0,0 0,0 0,0 0,0 -17,17 -17,17 0,35 0,35 0,35 0,0 17,17 17,17 53,19 107,19 141,19 108,0 179,-54 179,-143 0,-53 -36,-89 -107,-141 z m 533,-426 0,0 c -36,0 -36,0 -36,0 -19,0 -19,17 -19,17 0,179 0,179 0,179 -34,0 -88,-19 -105,-19 -142,0 -196,89 -196,232 0,69 0,69 0,69 0,144 54,232 196,232 53,0 105,-19 160,-19 17,0 17,-17 17,-17 0,-657 0,-657 0,-657 0,0 0,-17 -17,-17 z m -55,622 0,0 c -34,17 -69,17 -105,17 -89,0 -124,-53 -124,-161 0,-69 0,-69 0,-69 0,-89 35,-161 124,-161 17,0 71,0 105,18 0,356 0,356 0,356 z m 356,-445 0,0 c -71,0 -107,19 -143,19 -17,0 -17,0 -17,17 0,35 0,35 0,35 0,18 0,18 17,18 0,0 0,0 0,0 36,0 89,-18 143,-18 70,0 89,36 89,106 0,36 0,36 0,36 -53,0 -53,0 -53,0 -160,0 -232,53 -232,160 0,0 0,0 0,0 0,124 72,160 161,160 35,0 88,-19 124,-54 0,18 0,18 0,18 0,17 17,17 17,17 53,0 53,0 53,0 0,0 18,0 18,-17 0,-320 0,-320 0,-320 0,-106 -52,-177 -177,-177 z m 89,426 0,0 c -36,19 -72,36 -124,36 -36,0 -72,-17 -72,-89 0,0 0,0 0,0 0,-72 19,-89 143,-89 53,0 53,0 53,0 0,142 0,142 0,142 z m 638,-426 0,0 c -35,0 -88,19 -143,36 -17,-17 -52,-36 -88,-36 -53,0 -89,19 -125,53 0,-17 0,-17 0,-17 0,-17 -17,-17 -17,-17 -52,0 -52,0 -52,0 0,0 -19,0 -19,17 0,461 0,461 0,461 0,17 19,17 19,17 52,0 52,0 52,0 0,0 17,0 17,-17 0,-390 0,-390 0,-390 36,-18 72,-36 108,-36 36,0 71,18 71,106 0,320 0,320 0,320 0,17 0,17 17,17 36,0 36,0 36,0 17,0 17,0 17,-17 0,-320 0,-320 0,-320 0,-34 0,-53 0,-70 36,-18 72,-36 107,-36 36,0 70,36 70,106 0,320 0,320 0,320 0,17 19,17 19,17 53,0 53,0 53,0 0,0 18,0 18,-17 0,-320 0,-320 0,-320 0,-124 -71,-177 -160,-177 z"
           id="path22" />
        <path
           inkscape:connector-curvature="0"
           style="fill:#555f66;stroke:none;visibility:visible"
           d="m 8905,3514.9976 0,0 c 232,0 232,0 232,0 34,0 52,-19 52,-54 0,-710 0,-710 0,-710 675,0 675,0 675,0 0,710 0,710 0,710 0,35 17,54 35,54 230,0 230,0 230,0 36,0 53,-19 53,-54 0,-1650 0,-1650 0,-1650 0,-19 -17,-36 -53,-36 -230,0 -230,0 -230,0 -18,0 -35,17 -35,36 0,656 0,656 0,656 -675,0 -675,0 -675,0 0,-656 0,-656 0,-656 0,-19 -18,-36 -52,-36 -232,0 -232,0 -232,0 -17,0 -36,17 -36,36 0,1650 0,1650 0,1650 0,35 19,54 36,54 z m 1951,17 0,0 c 125,0 231,-36 339,-107 0,36 0,36 0,36 0,35 17,54 52,54 196,0 196,0 196,0 17,0 53,-19 53,-54 0,-834 0,-834 0,-834 0,-302 -196,-462 -515,-462 -177,0 -302,17 -409,36 -17,17 -34,36 -34,53 0,160 0,160 0,160 0,35 17,35 34,35 19,0 19,0 19,0 70,-18 230,-18 390,-18 125,0 197,36 197,196 0,88 0,88 0,88 -143,0 -143,0 -143,0 -408,0 -568,142 -568,407 0,19 0,19 0,19 0,320 212,391 389,391 z m -88,-410 0,0 c 0,-124 53,-194 267,-194 143,0 143,0 143,0 0,283 0,283 0,283 -72,37 -160,72 -233,72 -124,0 -177,-35 -177,-142 0,-19 0,-19 0,-19 z m 1171,-282 0,0 c 320,194 320,194 320,194 71,54 105,88 105,124 0,72 -17,125 -158,125 -71,0 -284,-17 -390,-35 -19,0 -19,0 -19,0 -17,0 -35,18 -35,35 0,142 0,142 0,142 0,36 18,54 35,54 142,36 338,53 426,53 302,0 462,-160 462,-374 0,-124 -36,-230 -230,-354 -303,-177 -303,-177 -303,-177 -70,-36 -89,-72 -89,-108 0,-70 36,-88 160,-88 124,0 320,18 373,18 17,0 17,0 17,0 19,0 36,-18 36,-35 0,-143 0,-143 0,-143 0,-34 -17,-53 -36,-53 -124,-17 -230,-53 -426,-53 -301,0 -442,124 -442,354 0,143 88,249 194,321 z m 1669,-36 0,0 c -321,-177 -321,-177 -321,-177 -52,-36 -88,-72 -88,-108 0,-70 53,-88 160,-88 141,0 318,18 390,18 0,0 0,0 0,0 36,0 53,-18 53,-35 0,-143 0,-143 0,-143 0,-34 -17,-53 -53,-53 -124,-17 -230,-53 -409,-53 -301,0 -443,124 -443,354 0,143 72,249 195,321 320,194 320,194 320,194 71,54 107,88 107,124 0,72 -36,125 -179,125 -70,0 -283,-17 -390,-35 0,0 0,0 0,0 -36,0 -53,18 -53,35 0,142 0,142 0,142 0,36 17,54 53,54 125,36 320,53 409,53 318,0 461,-160 461,-374 0,-124 -18,-230 -212,-354 z m 992,728 0,0 c 373,0 567,-249 567,-587 0,-194 0,-194 0,-194 0,-337 -194,-586 -567,-586 -373,0 -550,249 -550,586 0,194 0,194 0,194 0,338 177,587 550,587 z m -248,-781 0,0 c 0,-196 88,-320 248,-320 160,0 249,124 249,320 0,194 0,194 0,194 0,196 -89,321 -249,321 -160,0 -248,-125 -248,-321 0,-194 0,-194 0,-194 z m -4275,1829 0,0 c 0,-19 0,-19 0,-19 0,-407 -321,-531 -675,-531 -177,0 -337,0 -461,17 -53,17 -72,35 -72,71 0,1615 0,1615 0,1615 0,34 19,53 36,53 249,0 249,0 249,0 17,0 35,-19 35,-53 0,-605 0,-605 0,-605 53,0 142,0 213,0 354,0 675,-122 675,-548 z m -321,0 0,0 c 0,194 -105,282 -354,282 -36,0 -177,0 -213,0 0,-567 0,-567 0,-567 36,0 160,0 213,0 230,0 354,72 354,266 0,19 0,19 0,19 z m 586,1206 0,0 c 230,0 230,0 230,0 19,0 36,-36 36,-53 0,-1686 0,-1686 0,-1686 0,-36 -17,-53 -36,-53 -230,0 -230,0 -230,0 -17,0 -36,17 -36,53 0,1686 0,1686 0,1686 0,17 19,53 36,53 z m 1261,-89 0,0 c 0,36 0,36 0,36 0,34 17,53 34,53 213,0 213,0 213,0 19,0 36,-19 36,-53 0,-835 0,-835 0,-835 0,-301 -177,-461 -514,-461 -160,0 -302,18 -391,35 -36,17 -36,36 -36,53 0,160 0,160 0,160 0,36 19,36 36,36 17,0 17,0 17,0 72,-19 232,-19 374,-19 141,0 213,36 213,196 0,89 0,89 0,89 -142,0 -142,0 -142,0 -408,0 -587,141 -587,409 0,17 0,17 0,17 0,320 214,390 410,390 106,0 230,-36 337,-106 z m -425,-284 0,0 c 0,-17 0,-17 0,-17 0,-125 52,-196 265,-196 142,0 142,0 142,0 0,284 0,284 0,284 -72,36 -161,70 -249,70 -106,0 -158,-34 -158,-141 z m 1117,18 0,0 c 0,302 105,372 373,372 52,0 105,-17 158,-17 36,0 54,-19 54,-53 0,-143 0,-143 0,-143 0,-17 -18,-36 -54,-36 -124,0 -124,0 -124,0 -89,0 -89,-17 -89,-123 0,-746 0,-746 0,-746 143,0 143,0 143,0 17,0 53,-17 53,-35 0,-142 0,-142 0,-142 0,-36 -36,-53 -53,-53 -143,0 -143,0 -143,0 0,-231 0,-231 0,-231 0,-36 -17,-36 -36,-36 -17,0 -17,0 -17,0 -213,36 -213,36 -213,36 -35,0 -52,18 -52,35 0,196 0,196 0,196 -213,0 -213,0 -213,0 -36,0 -53,17 -53,53 0,106 0,106 0,106 0,19 17,36 53,36 213,35 213,35 213,35 0,746 0,746 0,746 z m 1401,123 0,0 c -124,0 -124,0 -124,0 -89,0 -89,-17 -89,-123 0,-746 0,-746 0,-746 213,0 213,0 213,0 17,0 36,-17 36,-35 0,-142 0,-142 0,-142 0,-36 -19,-53 -36,-53 -213,0 -213,0 -213,0 0,-231 0,-231 0,-231 0,-36 -19,-36 -36,-36 -18,0 -18,0 -18,0 -213,36 -213,36 -213,36 -34,0 -53,18 -53,35 0,196 0,196 0,196 -160,0 -160,0 -160,0 -17,0 -34,17 -34,53 0,106 0,106 0,106 0,19 17,36 34,36 160,35 160,35 160,35 0,746 0,746 0,746 0,302 107,372 373,372 53,0 106,-17 160,-17 36,0 53,-19 53,-53 0,-143 0,-143 0,-143 0,-17 -36,-36 -53,-36 z m 1383,179 0,0 c 0,-763 0,-763 0,-763 0,-302 -70,-533 -407,-533 -160,0 -249,35 -373,124 0,-53 0,-53 0,-53 0,-36 -36,-53 -53,-53 -213,0 -213,0 -213,0 -19,0 -36,17 -36,53 0,1225 0,1225 0,1225 0,17 17,53 36,53 230,0 230,0 230,0 17,0 36,-36 36,-53 0,-940 0,-940 0,-940 105,-55 194,-91 265,-91 178,0 196,55 196,268 0,763 0,763 0,763 0,17 36,53 53,53 213,0 213,0 213,0 36,0 53,-36 53,-53 z m 1313,-497 0,0 c 35,0 52,-36 52,-72 0,-124 0,-124 0,-124 0,-355 -194,-603 -567,-603 -354,0 -550,231 -550,603 0,178 0,178 0,178 0,460 338,585 567,585 213,0 302,-17 445,-36 53,-17 53,-34 53,-70 0,-160 0,-160 0,-160 0,-17 -17,-36 -36,-36 -17,0 -17,0 -17,0 -89,19 -249,36 -426,36 -231,0 -284,-160 -284,-301 0,0 0,0 0,0 763,0 763,0 763,0 z m -763,-230 0,0 c 0,-196 107,-304 248,-304 160,0 249,108 249,304 0,0 0,0 0,0 -497,0 -497,0 -497,0 0,0 0,0 0,0 z m 1703,-569 0,0 c -106,0 -230,35 -338,124 0,-53 0,-53 0,-53 0,-36 -35,-53 -52,-53 -196,0 -196,0 -196,0 -34,0 -53,17 -53,53 0,1225 0,1225 0,1225 0,17 19,53 53,53 213,0 213,0 213,0 18,0 35,-36 35,-53 0,-940 0,-940 0,-940 108,-55 196,-91 338,-91 18,0 35,-17 35,-52 0,-161 0,-161 0,-161 0,-17 -17,-52 -35,-52 z m -8178,1880 0,0 c -249,0 -249,0 -249,0 -17,0 -36,19 -36,36 0,1651 0,1651 0,1651 0,35 19,52 36,52 249,0 249,0 249,0 17,0 35,-17 35,-52 0,-1651 0,-1651 0,-1651 0,-17 -18,-36 -35,-36 z m 1135,392 0,0 c -160,0 -248,34 -390,123 0,-53 0,-53 0,-53 0,-36 -18,-53 -54,-53 -194,0 -194,0 -194,0 -36,0 -55,17 -55,53 0,1225 0,1225 0,1225 0,17 19,52 55,52 213,0 213,0 213,0 17,0 53,-35 53,-52 0,-941 0,-941 0,-941 88,-53 177,-88 265,-88 177,0 196,52 196,265 0,764 0,764 0,764 0,17 17,52 53,52 213,0 213,0 213,0 17,0 52,-35 52,-52 0,-764 0,-764 0,-764 0,-301 -69,-531 -407,-531 z m 1456,639 0,0 c -321,-179 -321,-179 -321,-179 -52,-34 -88,-70 -88,-106 0,-71 54,-88 160,-88 141,0 320,17 390,17 19,0 19,0 19,0 17,0 34,-17 34,-36 0,-141 0,-141 0,-141 0,-36 -17,-53 -53,-53 -106,-19 -230,-53 -407,-53 -301,0 -461,123 -461,354 0,142 88,249 194,319 337,196 337,196 337,196 71,52 107,88 107,124 0,72 -36,124 -177,124 -72,0 -284,-18 -392,-35 -17,0 -17,0 -17,0 -17,0 -35,17 -35,35 0,142 0,142 0,142 0,36 18,53 35,53 142,35 337,54 426,54 320,0 461,-160 461,-373 0,-124 -18,-232 -212,-354 z m 1224,478 0,0 c -124,0 -124,0 -124,0 -89,0 -89,-18 -89,-124 0,-746 0,-746 0,-746 213,0 213,0 213,0 17,0 34,-17 34,-34 0,-143 0,-143 0,-143 0,-36 -17,-53 -34,-53 -213,0 -213,0 -213,0 0,-230 0,-230 0,-230 0,-36 -19,-36 -36,-36 -18,0 -18,0 -18,0 -213,36 -213,36 -213,36 -34,0 -53,17 -53,34 0,196 0,196 0,196 -230,0 -230,0 -230,0 -19,0 -36,17 -36,53 0,107 0,107 0,107 0,17 17,36 36,36 230,34 230,34 230,34 0,746 0,746 0,746 0,302 107,373 373,373 53,0 105,-19 160,-19 34,0 53,-17 53,-52 0,-142 0,-142 0,-142 0,-19 -19,-36 -53,-36 z m 603,-1100 0,0 c -213,0 -213,0 -213,0 -36,0 -53,17 -53,53 0,1225 0,1225 0,1225 0,17 17,52 53,52 213,0 213,0 213,0 36,0 53,-35 53,-52 0,-1225 0,-1225 0,-1225 0,-36 -17,-53 -53,-53 z m 17,-479 0,0 c -230,0 -230,0 -230,0 -36,0 -53,36 -53,53 0,213 0,213 0,213 0,17 17,36 53,36 230,0 230,0 230,0 19,0 36,-19 36,-36 0,-213 0,-213 0,-213 0,-17 -17,-53 -36,-53 z m 1117,1579 0,0 c -123,0 -123,0 -123,0 -90,0 -107,-18 -107,-124 0,-746 0,-746 0,-746 213,0 213,0 213,0 36,0 53,-17 53,-34 0,-143 0,-143 0,-143 0,-36 -17,-53 -53,-53 -213,0 -213,0 -213,0 0,-230 0,-230 0,-230 0,-36 0,-36 -36,-36 0,0 0,0 0,0 -230,36 -230,36 -230,36 -18,0 -35,17 -35,34 0,196 0,196 0,196 -230,0 -230,0 -230,0 -19,0 -36,17 -36,53 0,107 0,107 0,107 0,17 17,36 36,36 230,34 230,34 230,34 0,746 0,746 0,746 0,302 105,373 372,373 53,0 106,-19 159,-19 36,0 54,-17 54,-52 0,-142 0,-142 0,-142 0,-19 -35,-36 -54,-36 z m 1367,-1100 0,0 c -213,0 -213,0 -213,0 -18,0 -35,36 -35,53 0,940 0,940 0,940 -72,36 -196,89 -285,89 -71,0 -105,-17 -141,-34 -36,-36 -55,-108 -55,-232 0,-763 0,-763 0,-763 0,-17 -17,-53 -52,-53 -213,0 -213,0 -213,0 -17,0 -36,36 -36,53 0,763 0,763 0,763 0,196 19,337 107,426 72,71 177,107 302,107 141,0 248,-36 373,-124 0,53 0,53 0,53 0,35 17,52 35,52 213,0 213,0 213,0 34,0 53,-17 53,-52 0,-1225 0,-1225 0,-1225 0,-17 -19,-53 -53,-53 z m 1134,1100 0,0 c -124,0 -124,0 -124,0 -89,0 -106,-18 -106,-124 0,-746 0,-746 0,-746 213,0 213,0 213,0 36,0 53,-17 53,-34 0,-143 0,-143 0,-143 0,-36 -17,-53 -53,-53 -213,0 -213,0 -213,0 0,-230 0,-230 0,-230 0,-36 -18,-36 -35,-36 0,0 0,0 0,0 -230,36 -230,36 -230,36 -19,0 -36,17 -36,34 0,196 0,196 0,196 -232,0 -232,0 -232,0 -17,0 -52,17 -52,53 0,107 0,107 0,107 0,17 35,36 52,36 232,34 232,34 232,34 0,746 0,746 0,746 0,302 106,373 371,373 55,0 107,-19 160,-19 36,0 36,-17 36,-52 0,-142 0,-142 0,-142 0,-19 -17,-36 -36,-36 z"
           id="path24" />
        <path
           inkscape:connector-curvature="0"
           style="fill:#b1063a;stroke:none;visibility:visible"
           d="m 7042,8055.9976 -7042,0 0,-7044 7042,0 0,7044 0,0 z"
           id="path28" />
        <path
           inkscape:connector-curvature="0"
           style="fill:#faa61a;stroke:none;visibility:visible"
           d="m 8054,6033.9976 -6050,0 0,-6034 6050,0 0,6034 0,0 z"
           id="path32" />
        <path
           inkscape:connector-curvature="0"
           style="fill:#e1681e;stroke:none;visibility:visible"
           d="m 2004,6033.9976 5038,0 0,-5022 -5038,0 0,5022 0,0 z"
           id="path36" />
        <path
           inkscape:connector-curvature="0"
           style="fill:#ffffff;stroke:none;visibility:visible"
           d="m 4062,1791.9976 0,0 c -230,0 -230,0 -230,0 -35,0 -52,19 -52,36 0,656 0,656 0,656 -675,0 -675,0 -675,0 0,-656 0,-656 0,-656 0,-17 -17,-36 -36,-36 -229,0 -229,0 -229,0 -36,0 -55,19 -55,36 0,1651 0,1651 0,1651 0,36 19,53 55,53 229,0 229,0 229,0 19,0 36,-17 36,-53 0,-711 0,-711 0,-711 675,0 675,0 675,0 0,711 0,711 0,711 0,36 17,53 52,53 230,0 230,0 230,0 19,0 36,-17 36,-53 0,-1651 0,-1651 0,-1651 0,-17 -17,-36 -36,-36 z m 923,-17 0,0 c -160,0 -337,0 -443,17 -54,19 -88,36 -88,72 0,1615 0,1615 0,1615 0,36 34,53 53,53 230,0 230,0 230,0 35,0 54,-17 54,-53 0,-604 0,-604 0,-604 53,0 141,0 194,0 373,0 674,-124 674,-550 0,-19 0,-19 0,-19 0,-407 -301,-531 -674,-531 z m 354,550 0,0 c 0,194 -88,283 -354,283 -36,0 -160,0 -194,0 0,-567 0,-567 0,-567 34,0 158,0 194,0 249,0 354,71 354,265 0,19 0,19 0,19 z m 870,-533 0,0 c -231,0 -231,0 -231,0 -17,0 -34,19 -34,36 0,1651 0,1651 0,1651 0,36 17,53 34,53 231,0 231,0 231,0 36,0 53,-17 53,-53 0,-1651 0,-1651 0,-1651 0,-17 -17,-36 -53,-36 z"
           id="path40" />
      </g>
      <g
         transform="matrix(1.1432305,0,0,1.1432305,427.83583,335.39267)"
         id="g3255">
        <path
           inkscape:connector-curvature="0"
           d="m 3.659117,39.640618 c 1.1587,0.37375 2.4025,-0.25875 2.7775,-1.4175 0.3762,-1.1575 -0.2575,-2.40125 -1.415,-2.7775 -1.1588,-0.37875 -2.4013,0.25875 -2.7763,1.4175 -0.3775,1.1575 0.255,2.4 1.4138,2.7775"
           id="path2905"
           style="fill:#104871;fill-opacity:1;fill-rule:nonzero;stroke:none" />
        <path
           inkscape:connector-curvature="0"
           d="m 2.546717,66.883988 c 1.2025,-0.19125 2.025,-1.32 1.8338,-2.52125 -0.19,-1.20375 -1.3188,-2.02375 -2.5238,-1.8325 -1.20119997,0.19 -2.02119997,1.3175 -1.82869997,2.5225 0.19,1.2025 1.31619997,2.02 2.51869997,1.83125"
           id="path2909"
           style="fill:#104871;fill-opacity:1;fill-rule:nonzero;stroke:none" />
        <path
           inkscape:connector-curvature="0"
           d="m 13.926617,91.663748 c 0.985,-0.71625 1.2037,-2.095 0.4912,-3.08 -0.7175,-0.98625 -2.0975,-1.2025 -3.0837,-0.48625 -0.985,0.7125 -1.2,2.09125 -0.4838,3.07875 0.7138,0.985 2.0913,1.20375 3.0763,0.4875"
           id="path2913"
           style="fill:#104871;fill-opacity:1;fill-rule:nonzero;stroke:none" />
        <path
           inkscape:connector-curvature="0"
           d="m 35.313517,108.57699 c 0.555,-1.085 0.1237,-2.41375 -0.9588,-2.9675 -1.0887,-0.5525 -2.4137,-0.11875 -2.97,0.965 -0.5512,1.085 -0.1187,2.41 0.97,2.96625 1.0838,0.5525 2.405,0.12125 2.9588,-0.96375"
           id="path2917"
           style="fill:#104871;fill-opacity:1;fill-rule:nonzero;stroke:none" />
        <path
           inkscape:connector-curvature="0"
           d="m 62.051417,113.93612 c 0,-1.22 -0.9825,-2.205 -2.2012,-2.205 -1.2213,0 -2.2088,0.985 -2.2088,2.205 0,1.2175 0.9875,2.2025 2.2088,2.20125 1.2162,10e-4 2.2012,-0.98375 2.2012,-2.20125"
           id="path2921"
           style="fill:#104871;fill-opacity:1;fill-rule:nonzero;stroke:none" />
        <path
           inkscape:connector-curvature="0"
           d="m 26.891717,7.9872382 -0.9687,0.82375 4.1887,4.9174998 c 1.1763,1.37875 1.445,2.68875 0.8675,4.18125 -0.2987,0.74625 -0.7875,1.42875 -1.4212,1.9675 -1.87,1.595 -4.3063,1.53125 -5.7463,-0.16125 l -4.4975,-5.2775 -0.9675,0.82375 -0.4062,-0.4775 3.0712,-2.615 0.4075,0.47875 -0.9687,0.82375 4.1562,4.87875 c 1.33,1.56 3.115,1.79875 4.5475,0.58 1.4713,-1.2525 1.5738,-3.145 0.255,-4.695 l -4.145,-4.8637498 -0.9675,0.8237498 -0.4062,-0.4774998 2.5937,-2.20875 0.4075,0.4775 z"
           id="path2925"
           style="fill:#104871;fill-opacity:1;fill-rule:nonzero;stroke:none" />
        <path
           inkscape:connector-curvature="0"
           d="m 41.928317,11.831888 -3.3875,1.7925 -0.2925,-0.555 1.125,-0.5925 -2.325,-4.3899998 c -0.4212,-0.79625 -1.0862,-1.07625 -1.7462,-0.72875 -0.6438,0.3425 -0.8688,0.82375 -1.3775,3.0124998 l 2.0612,3.8975 1.1388,-0.60375 0.2937,0.555 -3.4025,1.8 -0.2937,-0.55375 1.1375,-0.6025 -2.8538,-5.3949998 -1.3037,0.6899998 -0.2125,-0.4037498 1.8462,-1.7275 0.2713,-0.14375 0.8875,1.68 c 0.4337,-1.89875 0.8662,-2.645 1.8225,-3.1525 1.1112,-0.58625 2.1812,-0.2325 2.79,0.92375 l 2.4037,4.5387498 1.1225,-0.595 0.295,0.55375 z"
           id="path2929"
           style="fill:#104871;fill-opacity:1;fill-rule:nonzero;stroke:none" />
        <path
           inkscape:connector-curvature="0"
           d="m 40.815817,0.05098822 c 0.48,-0.16374999 0.9775,0.08000001 1.1363,0.54375001 0.1637,0.48124997 -0.08,0.97624997 -0.5588,1.14124997 -0.4662,0.16 -0.9612,-0.0825 -1.125,-0.565 -0.1612,-0.46374997 0.0813,-0.96124997 0.5475,-1.11999998 m 5.67,10.36999978 -3.64,1.2475 -0.205,-0.5925 1.22,-0.41875 -1.98,-5.7749998 -1.395,0.4825 -0.15,-0.43375 2.0963,-1.41875 0.2887,-0.0975 2.3438,6.8287498 1.2175,-0.4149998 0.2037,0.5924998 z"
           id="path2933"
           style="fill:#104871;fill-opacity:1;fill-rule:nonzero;stroke:none" />
        <path
           inkscape:connector-curvature="0"
           d="m 52.708217,1.8261182 -0.6987,0.14375 -1.2613,7.6775 -0.3325,0.0675 -4.35,-6.52375 -0.7012,0.125 -0.125,-0.61375 3.2237,-0.65375 0.1238,0.61375 -1.1625,0.23625 2.9712,4.50125 0.8663,-5.27875 -1.1113,0.22625 -0.125,-0.61625 2.5575,-0.52 0.125,0.615 z"
           id="path2937"
           style="fill:#104871;fill-opacity:1;fill-rule:nonzero;stroke:none" />
        <path
           inkscape:connector-curvature="0"
           d="m 60.666317,7.1295082 c -0.9237,0.65125 -1.375,0.8375 -2.0537,0.86625 -1.6075,0.065 -2.7863,-1.36125 -2.8738,-3.47875 l -0.0075,-0.1875 5.3375,-0.21875 -0.02,-0.4575 c -0.0762,-1.83125 -1.3812,-3.03374997 -3.21,-2.95749997 -2.1,0.0875 -3.5725,1.87874997 -3.4725,4.25124997 0.095,2.33625 1.6875,3.93625 3.84,3.84375 0.9813,-0.04 1.5663,-0.26625 2.8063,-1.04625 l -0.3463,-0.615 z m -4.9475,-3.47625 c 0.1,-1.33 0.93,-2.195 2.165,-2.245 0.9838,-0.0425 1.7075,0.65875 1.7513,1.675 l 0.0162,0.40625 -3.9325,0.16375 z"
           id="path2941"
           style="fill:#104871;fill-opacity:1;fill-rule:nonzero;stroke:none" />
        <path
           inkscape:connector-curvature="0"
           d="m 66.236517,8.9523682 -4.165,-0.4275 0.0637,-0.625 1.2813,0.13125 0.625,-6.07 -1.4688,-0.15125 0.0475,-0.4575 2.4963,-0.40624997 0.3025,0.0325 -0.1938,1.88874997 c 1.375,-1.4275 1.8488,-1.75375 2.4575,-1.6925 0.2038,0.0225 0.3663,0.09 0.4588,0.20125 l 0.4725,0.51 -1.0975,1.07875 c -0.305,-0.355 -0.5263,-0.53 -0.6925,-0.55 -0.3075,-0.03 -0.6375,0.2275 -1.68,1.2625 l -0.4613,4.485 1.6175,0.1675 -0.0637,0.6225 z"
           id="path2945"
           style="fill:#104871;fill-opacity:1;fill-rule:nonzero;stroke:none" />
        <path
           inkscape:connector-curvature="0"
           d="m 68.976717,9.5473682 -0.6587,-0.15875 0.5675,-2.34125 0.7575,0.18375 -0.1088,0.44625 c -0.1712,0.7075 0.6013,1.5575 1.6238,1.80625 0.9037,0.21875 1.695,-0.095 1.855,-0.75375 0.1612,-0.65875 -0.2113,-1.1325 -1.78,-2.23125 -1.4325,-0.99125 -1.8463,-1.7375 -1.5938,-2.77375 0.3125,-1.28625 1.5625,-1.90625 3.0788,-1.54 0.725,0.175 1.2412,0.4925 1.61,0.9825 l 0.2425,-0.56875 0.7087,0.17125 -0.9737,2.2775 -0.7063,-0.1725 c 0.11,-0.16375 0.1938,-0.37 0.2313,-0.5175 0.1575,-0.645 -0.4575,-1.35125 -1.3475,-1.56625 -0.855,-0.20875 -1.5288,0.1175 -1.7013,0.82625 -0.1712,0.70875 -0.0775,0.82 1.7213,2.10875 1.4612,1.035 1.8387,1.7025 1.5825,2.75875 -0.3213,1.3175 -1.5663,1.9899998 -3.0313,1.6362498 -0.9237,-0.2237498 -1.5637,-0.6049998 -1.9337,-1.1662498 l -0.1438,0.5925 z"
           id="path2949"
           style="fill:#104871;fill-opacity:1;fill-rule:nonzero;stroke:none" />
        <path
           inkscape:connector-curvature="0"
           d="m 80.568617,0.67186823 c 0.475,0.17875 0.7025,0.68249997 0.53,1.14249997 -0.1813,0.4775 -0.6838,0.70375 -1.1588,0.525 -0.46,-0.175 -0.6862,-0.67625 -0.5075,-1.15375 0.175,-0.45999997 0.6763,-0.68624997 1.1363,-0.51374997 m -2.2425,11.60374977 -3.6025,-1.35875 0.2237,-0.5875 1.205,0.45625 2.1563,-5.7112498 -1.38,-0.5225 0.16,-0.425 2.5187,0.2425 0.2863,0.1075 -2.5525,6.7574998 1.2037,0.45375 -0.2187,0.5875 z"
           id="path2953"
           style="fill:#104871;fill-opacity:1;fill-rule:nonzero;stroke:none" />
        <path
           inkscape:connector-curvature="0"
           d="m 83.402517,13.977248 c -1.12,0.235 -1.4925,0.21875 -2.0563,-0.06125 -0.8775,-0.44 -1.1337,-1.2525 -0.6725,-2.175 l 2.3413,-4.6887498 -1.3175,-0.6575 0.2025,-0.41 1.4862,0.32625 1.045,-2.0925 1.095,0.545 -1.0712,2.1375 1.8812,0.94125 -0.3487,0.69625 -1.88,-0.93875 -2.275,4.5487498 c -0.2863,0.575 -0.195,0.885 0.3037,1.13875 0.3188,0.15625 0.5475,0.19625 1.2125,0.14875 l 0.0538,0.54125 z"
           id="path2957"
           style="fill:#104871;fill-opacity:1;fill-rule:nonzero;stroke:none" />
        <path
           inkscape:connector-curvature="0"
           d="m 88.148617,15.935368 c -0.9875,0.12375 -1.4888,0.0675 -1.9338,-0.23875 -0.5875,-0.4025 -0.705,-1.03875 -0.3025,-1.62625 l 0.4813,-0.69875 2.7725,1.08375 -1.0175,1.48 z m 3.1562,-7.8899998 c 0.2688,-0.3925 0.1825,-0.92375 -0.2087,-1.1925 -0.3925,-0.26875 -0.9175,-0.15875 -1.1888,0.2325 -0.2587,0.37625 -0.1725,0.91 0.2188,1.17875 0.3912,0.26875 0.92,0.15875 1.1787,-0.21875 m -1.53,10.0749998 -1.0775,-0.74 2.9575,-4.3025 c 0.6325,-0.92375 0.245,-2.09375 -0.985,-2.94 -1.2712,-0.8724998 -2.6212,-0.9162498 -3.1775,-0.105 -0.1062,0.155 -0.14,0.235 -0.1575,0.47 l 1.4938,0.48875 0.4625,-0.67 c 0.5375,0.08125 0.7475,0.165 1.0262,0.35625 0.5613,0.38625 0.7013,1.07875 0.3188,1.6375 l -1.0863,1.57875 -2.7625,-1.095 c -0.7775,-0.30875 -1.6437,-0.0375 -2.1312,0.67625 -0.6425,0.93625 -0.3925,2.09625 0.5725,2.75875 0.7425,0.5075 1.475,0.57875 2.5612,0.25625 -0.0387,0.05375 -0.0687,0.0975 -0.0987,0.14 -0.355,0.515 -0.315,0.99625 0.1187,1.295 0.1125,0.07625 0.3388,0.16875 0.5575,0.23875 l 1.1388,0.34625 0.2687,-0.39 z m 4.005,-8.3762498 c 0.2675,-0.39125 0.18,-0.925 -0.21,-1.19125 -0.39,-0.27125 -0.92,-0.16 -1.1887,0.23 -0.26,0.37875 -0.1725,0.91125 0.2187,1.17875 0.3925,0.2699998 0.9213,0.1587498 1.18,-0.2175"
           id="path2961"
           style="fill:#104871;fill-opacity:1;fill-rule:nonzero;stroke:none" />
        <path
           inkscape:connector-curvature="0"
           d="m 93.497817,21.642748 c -1.1425,-0.0675 -1.4987,-0.17875 -1.9662,-0.5975 -0.7325,-0.65625 -0.7675,-1.50625 -0.08,-2.27625 l 3.4912,-3.90875 -1.1025,-0.9825 0.3063,-0.3425 1.3487,0.70625 1.5613,-1.745 0.9075,0.8125 -1.5925,1.7825 1.5675,1.40125 -0.5188,0.58125 -1.5662,-1.39875 -3.3913,3.7925 c -0.43,0.48 -0.4212,0.80375 -0.0037,1.17625 0.2625,0.23875 0.4737,0.33375 1.13,0.465 l -0.0913,0.53375 z"
           id="path2965"
           style="fill:#104871;fill-opacity:1;fill-rule:nonzero;stroke:none" />
        <path
           inkscape:connector-curvature="0"
           d="m 13.757517,64.925748 -0.81,-4.11 0.615,-0.12125 0.2462,1.24875 9.7475,-1.92125 -0.245,-1.2475 0.615,-0.12125 0.94,4.75625 c 0.3775,1.93 -0.6575,3.51875 -2.52,3.88375 -1.8625,0.36875 -3.6212,-0.92625 -4.0275,-2.98875 -0.0637,-0.3175 -0.0812,-0.50375 -0.0837,-0.9525 l 0.5812,-0.11375 c -0.0037,0.225 0.01,0.30625 0.04,0.4575 0.28,1.43125 1.7113,2.37625 3.1913,2.08375 1.3312,-0.26125 2.2212,-1.35375 2.0062,-2.45 l -0.3575,-1.815 -9.5962,1.8925 0.2762,1.41375 -0.6187,0.105 z"
           id="path2969"
           style="fill:#104871;fill-opacity:1;fill-rule:nonzero;stroke:none" />
        <path
           inkscape:connector-curvature="0"
           d="m 16.674817,74.768368 c 0.8363,1.8725 3.1725,2.64875 5.2138,1.73875 2.0462,-0.91125 3.025,-3.1675 2.1887,-5.0425 -0.835,-1.8725 -3.1712,-2.65 -5.2137,-1.73875 -2.0438,0.91125 -3.025,3.1675 -2.1888,5.0425 m 6.75,-3.0125 c 0.52,1.16125 -0.4037,2.66875 -2.1212,3.435 -1.7188,0.7675 -3.4588,0.4475 -3.9763,-0.715 -0.5187,-1.16 0.4263,-2.65875 2.13,-3.41875 1.7188,-0.76625 3.45,-0.46375 3.9675,0.69875"
           id="path2973"
           style="fill:#104871;fill-opacity:1;fill-rule:nonzero;stroke:none" />
        <path
           inkscape:connector-curvature="0"
           d="m 23.130517,83.886748 c -1.0963,-0.33625 -1.415,-0.5275 -1.7713,-1.045 -0.5575,-0.81 -0.3937,-1.64375 0.4575,-2.23 l 4.315,-2.97375 -0.8362,-1.21625 0.3737,-0.26 1.145,1.0025 1.9288,-1.3275 0.6925,1.005 -1.9688,1.3575 1.1925,1.73125 -0.6412,0.44125 -1.1938,-1.73125 -4.1875,2.89 c -0.5287,0.36375 -0.6012,0.68 -0.2825,1.1425 0.2013,0.29 0.3825,0.43375 0.9888,0.71625 l -0.2125,0.4975 z"
           id="path2977"
           style="fill:#104871;fill-opacity:1;fill-rule:nonzero;stroke:none" />
        <path
           inkscape:connector-curvature="0"
           d="m 24.543517,86.901608 -0.4738,-0.4875 1.7313,-1.67375 0.5412,0.55875 -0.3262,0.31875 c -0.525,0.5075 -0.3288,1.6375 0.4025,2.3925 0.6487,0.6725 1.4837,0.83 1.9737,0.3575 0.485,-0.47125 0.4238,-1.0725 -0.315,-2.83375 -0.68,-1.6075 -0.6287,-2.4575 0.1375,-3.2 0.9538,-0.91875 2.3413,-0.77625 3.425,0.34625 0.5175,0.53625 0.7838,1.07875 0.8338,1.6925 l 0.5112,-0.3525 0.5063,0.525 -2.0388,1.405 -0.5062,-0.525 c 0.18,-0.0825 0.3637,-0.20875 0.4725,-0.31625 0.4762,-0.45875 0.3362,-1.385 -0.3,-2.0425 -0.6125,-0.6325 -1.3575,-0.72 -1.8788,-0.2125 -0.525,0.5075 -0.5037,0.65 0.3263,2.70375 0.6787,1.65375 0.6412,2.42 -0.1388,3.17625 -0.975,0.94375 -2.3887,0.8475 -3.4375,-0.23875 -0.6587,-0.68 -0.9962,-1.3475 -1.0087,-2.0175 l -0.4375,0.42375 z"
           id="path2981"
           style="fill:#104871;fill-opacity:1;fill-rule:nonzero;stroke:none" />
        <path
           inkscape:connector-curvature="0"
           d="m 37.641817,96.157248 -1.2225,-0.8275 6.4763,-9.56 -0.2663,-0.18 -2.3925,-0.82375 -0.2587,0.38 1.2212,0.82625 -2.1962,3.24375 c -0.3425,-0.64125 -0.5488,-0.88375 -1.0275,-1.20625 -1.8363,-1.245 -4.38,-0.69625 -5.6913,1.2425 -1.2175,1.795 -1.0262,3.99125 0.4325,4.9825 0.7138,0.48625 1.3788,0.565 2.6725,0.315 l -0.665,0.9825 0.2663,0.18125 2.385,0.83625 0.2662,-0.3925 z m -2.42,-2.2325 c -0.7487,0.045 -1.0162,-0.0125 -1.4525,-0.30875 -1.15,-0.77875 -1.2025,-2.1875 -0.135,-3.75875 1.0938,-1.6125 2.7375,-2.07625 4.0988,-1.155 0.8275,0.56125 0.9075,1.0475 0.3187,1.91875 l -2.205,3.25625 c -0.2787,0.015 -0.4937,0.03375 -0.625,0.0475"
           id="path2985"
           style="fill:#104871;fill-opacity:1;fill-rule:nonzero;stroke:none" />
        <path
           inkscape:connector-curvature="0"
           d="m 46.011817,99.802998 -1.2137,-0.48375 1.9337,-4.85 c 0.4138,-1.04 -0.2225,-2.0975 -1.6075,-2.65 -1.4325,-0.57 -2.7587,-0.315 -3.125,0.59875 -0.0675,0.17375 -0.0825,0.25875 -0.0475,0.49125 l 1.565,0.15 0.3025,-0.75625 c 0.5425,-0.03875 0.7675,-0.0037 1.0825,0.12125 0.6288,0.25 0.9188,0.8975 0.6688,1.52625 l -0.7113,1.78125 -2.9375,-0.4625 c -0.825,-0.1275 -1.6075,0.32625 -1.9275,1.13125 -0.4225,1.05375 0.0813,2.13125 1.1663,2.565 0.835,0.3325 1.5675,0.24 2.555,-0.31625 -0.0263,0.06375 -0.0463,0.11125 -0.0638,0.15875 -0.2312,0.58125 -0.0875,1.0425 0.4013,1.237502 0.1262,0.0475 0.365,0.09 0.595,0.1075 l 1.1862,0.0912 0.1775,-0.441252 z m -2.07,-1.77375 c -0.935,0.33875 -1.4325,0.39625 -1.9375,0.19375 -0.6612,-0.2625 -0.9162,-0.8575 -0.6537,-1.52 l 0.315,-0.78625 2.945,0.44375 -0.6688,1.66875 z"
           id="path2989"
           style="fill:#104871;fill-opacity:1;fill-rule:nonzero;stroke:none" />
        <path
           inkscape:connector-curvature="0"
           d="m 62.298217,103.02687 -3.8125,-0.37 0.0613,-0.625 1.2837,0.12375 0.4813,-4.943752 c 0.09,-0.91125 -0.3163,-1.48 -1.0588,-1.5525 -0.5575,-0.05375 -1.0187,0.155 -1.82,0.8625 l -0.99,0.87375 -0.4275,4.387502 1.2663,0.12375 -0.0625,0.62625 -3.8125,-0.37375 0.06,-0.625 1.265,0.12375 0.4862,-4.943752 c 0.0875,-0.895 -0.315,-1.49625 -1.0587,-1.5675 -0.725,-0.0725 -1.1788,0.20625 -2.8125,1.75125 l -0.4275,4.387502 1.2837,0.125 -0.0625,0.625 -3.8287,-0.37375 0.06,-0.625 1.2812,0.125 0.5938,-6.075002 -1.4675,-0.14375 0.0462,-0.455 2.4913,-0.42 0.305,0.03 -0.185,1.8875 c 1.4087,-1.3425 2.1812,-1.72625 3.26,-1.62375 1.1975,0.12 1.7937,0.80875 1.8362,2.12375 1.4088,-1.345 2.1788,-1.72875 3.2413,-1.62625 1.25,0.12375 1.9462,1.0075 1.8212,2.29125 l -0.5012,5.127502 1.265,0.12625 -0.0613,0.6225 z"
           id="path2993"
           style="fill:#104871;fill-opacity:1;fill-rule:nonzero;stroke:none" />
        <path
           inkscape:connector-curvature="0"
           d="m 81.715517,51.433368 -2.2188,0 0,13.8825 2.2188,0 0,-13.8825 z m 5.9437,0 -4.2462,0 0,13.8825 4.2462,0 0,-13.8825 z m -8.4762,23.18 12.7087,0 0,-7.43125 -12.7087,0 0,7.43125 z m -7.7425,-3.6975 c 0,1.54375 2.5437,2.90875 6.3975,3.69375 l 0,-7.3875 c -3.4288,0.70125 -6.3975,1.99625 -6.3975,3.69375 m -4.9788,-19.49375 -2.2212,0 0,13.9025 2.2212,0 0,-13.9025 z m 2.3363,13.90125 2.2187,0 0,-13.9025 -2.2187,0 0,13.9025 z m 4.5375,0 2.2212,0 0,-13.9025 -2.2212,0 0,13.9025 z m 4.5025,11.10125 0,4.64 c -6.095,-0.90375 -10.4575,-2.85 -11.3763,-5.18375 l -4.56,0 0,-27.65875 15.935,0 0,17.0975 c -6.6612,0.94375 -11.3275,3.11625 -11.3,5.58 0.0363,2.79875 5.7938,4.77 11.3013,5.525 m 13.7375,-24.99125 -2.2213,0 0,13.8825 2.2213,0 0,-13.8825 z m 8.055,19.4825 c 0,-1.6975 -2.9725,-2.9925 -6.3988,-3.69375 l 0,7.3875 c 3.8525,-0.785 6.3988,-2.15 6.3988,-3.69375 m -4.1188,-5.5925 2.2225,0 0,-13.9025 -2.2225,0 0,13.9025 z m 4.538803,0 2.2212,0 0,-13.9025 -2.2212,0 0,13.9025 z m 4.5562,0 2.2213,0 0,-13.9025 -2.2213,0 0,13.9025 z m -11.371203,-17.10125 15.930003,0 0,27.65875 -4.5575,0 c -0.9213,2.33375 -5.281303,4.28 -11.376303,5.18375 l 0,-4.64 c 5.5075,-0.755 11.267503,-2.72625 11.298803,-5.525 0.0275,-2.46375 -4.641303,-4.63625 -11.295003,-5.58 l 0,-17.0975 z m -31.3338,-3.11125 c -0.085,-0.24 -0.1487,-0.57625 -0.1487,-0.9575 0,-0.7275 0.1987,-1.31625 0.4462,-1.31625 0.2438,0 0.4438,0.58875 0.4438,1.31625 0,0.38125 -0.0588,0.725 -0.1463,0.96375 l 3.4475,0 c -0.0837,-0.23875 -0.1412,-0.5825 -0.1412,-0.96375 0,-0.7275 0.2012,-1.31625 0.4437,-1.31625 0.2463,0 0.445,0.58875 0.445,1.31625 0,0.38125 -0.055,0.725 -0.1412,0.96375 l 3.4175,0 c -0.0875,-0.23875 -0.14,-0.5825 -0.14,-0.96375 0,-0.7275 0.2,-1.31625 0.4437,-1.31625 0.245,0 0.4438,0.58875 0.4438,1.31625 0,0.38125 -0.055,0.725 -0.1425,0.96375 l 3.4112,0 c -0.0862,-0.23875 -0.14,-0.5825 -0.14,-0.96375 0,-0.7275 0.1975,-1.31625 0.4413,-1.31625 0.2475,0 0.4462,0.58875 0.4462,1.31625 0,0.38125 -0.055,0.725 -0.1425,0.96375 l 3.2475,0 0,-4.88125 1.1,0 c 0.125,-0.33625 0.325,-0.94125 0.3025,-1.62875 -0.11,-3.5275 1.7925,-6.44125 5.9663,-6.5925 -0.0738,-0.2325 -0.1213,-0.5525 -0.1213,-0.905 0,-0.72875 0.205,-1.3175 0.45,-1.3175 0.2463,0 0.4513,0.58875 0.4513,1.3175 0,0.3525 -0.05,0.6725 -0.125,0.905 4.175,0.15125 6.0775,3.065 5.97,6.5925 -0.0238,0.6875 0.175,1.2925 0.3062,1.62875 l 1.0988,0 0,4.88125 3.245,0 c -0.0875,-0.23875 -0.1413,-0.5825 -0.1413,-0.96375 0,-0.7275 0.195,-1.31625 0.4425,-1.31625 0.245,0 0.445,0.58875 0.445,1.31625 0,0.38125 -0.055,0.725 -0.1425,0.96375 l 3.410003,0 c -0.085,-0.23875 -0.1387,-0.5825 -0.1387,-0.96375 0,-0.7275 0.195,-1.31625 0.4462,-1.31625 0.24,0 0.4413,0.58875 0.4413,1.31625 0,0.38125 -0.0563,0.725 -0.1438,0.96375 l 3.42,0 c -0.0887,-0.23875 -0.1437,-0.5825 -0.1437,-0.96375 0,-0.7275 0.1987,-1.31625 0.445,-1.31625 0.2437,0 0.4462,0.58875 0.4462,1.31625 0,0.38125 -0.0575,0.725 -0.145,0.96375 l 3.4488,0 c -0.09,-0.23875 -0.1438,-0.5825 -0.1438,-0.96375 0,-0.7275 0.1988,-1.31625 0.4463,-1.31625 0.2425,0 0.4412,0.58875 0.4412,1.31625 0,0.38125 -0.0612,0.7175 -0.1512,0.9575 l 0,1.83125 -15.927503,0 0,1.2575 -15.3988,0 0,-1.2575 15.395,0 -7.6975,-4.1275 -7.6975,4.1275 -15.935,0 0,-1.83125 z"
           id="path2995"
           style="fill:#104871;fill-opacity:1;fill-rule:nonzero;stroke:none" />
      </g>
    </g>
  </g>
</svg>
